<?xml version="1.0" encoding="UTF-8" standalone="no"?>
<!-- Created with Inkscape (http://www.inkscape.org/) -->

<svg
   width="42cm"
   height="42cm"
   viewBox="0 0 420 420"
   version="1.1"
   id="svg1"
   inkscape:version="1.3.2 (091e20e, 2023-11-25, custom)"
   sodipodi:docname="Emma_Radovic_logotip.svg"
   xmlns:inkscape="http://www.inkscape.org/namespaces/inkscape"
   xmlns:sodipodi="http://sodipodi.sourceforge.net/DTD/sodipodi-0.dtd"
   xmlns="http://www.w3.org/2000/svg"
   xmlns:svg="http://www.w3.org/2000/svg">
  <sodipodi:namedview
     id="namedview1"
     pagecolor="#ffffff"
     bordercolor="#000000"
     borderopacity="0.25"
     inkscape:showpageshadow="2"
     inkscape:pageopacity="0.0"
     inkscape:pagecheckerboard="0"
     inkscape:deskcolor="#d1d1d1"
     inkscape:document-units="mm"
     showborder="false"
     showgrid="false"
     inkscape:zoom="0.48945419"
     inkscape:cx="1081.8173"
     inkscape:cy="805.99983"
     inkscape:window-width="1920"
     inkscape:window-height="991"
     inkscape:window-x="-9"
     inkscape:window-y="-9"
     inkscape:window-maximized="1"
     inkscape:current-layer="layer1">
    <inkscape:grid
       id="grid1"
       units="mm"
       originx="0"
       originy="0"
       spacingx="0.99999998"
       spacingy="0.99999998"
       empcolor="#0099e5"
       empopacity="0.30196078"
       color="#0099e5"
       opacity="0.14901961"
       empspacing="5"
       dotted="false"
       gridanglex="30"
       gridanglez="30"
       visible="false" />
  </sodipodi:namedview>
  <defs
     id="defs1">
    <inkscape:path-effect
       effect="spiro"
       id="path-effect37"
       is_visible="true"
       lpeversion="1" />
    <inkscape:path-effect
       effect="spiro"
       id="path-effect35"
       is_visible="true"
       lpeversion="1" />
    <rect
       x="976.59802"
       y="843.79704"
       width="345.28257"
       height="108.28388"
       id="rect33" />
    <rect
       x="59.249671"
       y="320.76546"
       width="814.00578"
       height="364.6765"
       id="rect32" />
    <rect
       x="24.517105"
       y="243.12796"
       width="1501.6727"
       height="739.59934"
       id="rect31" />
  </defs>
  <g
     inkscape:groupmode="layer"
     id="layer3"
     inkscape:label="knjiga">
    <path
       style="fill:#9e2098;fill-opacity:1;stroke:#7e2077;stroke-width:0.72348;stroke-dasharray:0.72348, 4.34088;stroke-dashoffset:0;stroke-opacity:1"
       d=""
       id="path42"
       transform="scale(0.26458333)" />
    <path
       style="fill:#9e2098;fill-opacity:1;stroke:#7e2077;stroke-width:0.264999;stroke-dasharray:0.264999, 1.59;stroke-dashoffset:0;stroke-opacity:1"
       d="m 344.5888,295.66215 c 24.27219,-60.01157 24.08108,-60.20269 24.08108,-60.20269"
       id="path36" />
    <path
       style="fill:#9e2098;fill-opacity:1;stroke:#7e2077;stroke-width:0.264999;stroke-dasharray:0.264999, 1.59;stroke-dashoffset:0;stroke-opacity:1"
       d="m 305.21814,235.45946 -35.73938,59.62935 c 5.63205,-4.63141 12.95554,-7.15792 20.24524,-6.98436 7.2897,0.17356 14.48465,3.04575 19.8899,7.93995 0.22597,0.2046 0.44977,0.41328 0.69964,0.58789 0.24987,0.17461 0.52901,0.31532 0.82931,0.36771 0.29384,0.0513 0.59763,0.0161 0.88546,-0.0622 0.28783,-0.0783 0.56223,-0.19855 0.83463,-0.32007 5.52702,-2.46561 10.8382,-5.64572 16.77781,-6.80685 2.9698,-0.58056 6.08103,-0.63028 8.99271,0.19369 2.91168,0.82396 5.61175,2.56834 7.29318,5.08421 0.28563,0.42738 0.54128,0.87478 0.76446,1.33784"
       id="path35"
       inkscape:original-d="m 305.21814,235.45946 c -35.16603,58.67375 -35.73938,59.62935 -35.73938,59.62935 0,0 26.82046,0.82817 40.13514,0.95559 13.31466,0.1274 1.01931,0.57336 1.52895,0.9556 0.50964,0.38224 1.21042,-0.31853 1.72009,-0.38224 0.50964,-0.0637 21.97875,-0.9556 33.0637,-1.52895 11.08493,-0.57338 0.50964,0.89188 0.76446,1.33784"
       inkscape:path-effect="#path-effect35" />
    <path
       style="fill:#9e2098;fill-opacity:1;stroke:#7e2077;stroke-width:0.264999;stroke-dasharray:0.264999, 1.59;stroke-dashoffset:0;stroke-opacity:1"
       d="m 305.60039,236.03281 c 4.0696,-4.15801 9.79562,-6.64801 15.61205,-6.78902 5.81643,-0.141 11.65638,2.06862 15.92268,6.02455 0.29995,0.27813 0.59693,0.56779 0.9556,0.76447 0.39997,0.21933 0.86019,0.3122 1.31619,0.32454 0.45599,0.0123 0.91051,-0.0528 1.35949,-0.13341 5.1711,-0.9288 9.76217,-3.88813 14.84738,-5.20857 2.54261,-0.66022 5.2495,-0.89743 7.79185,-0.23622 1.27117,0.3306 2.48927,0.88575 3.53858,1.67577 1.04931,0.79002 1.92664,1.81811 2.49016,3.00454 0.25994,0.54727 0.45294,1.12629 0.57335,1.72007"
       id="path37"
       transform="matrix(1.0148126,0,0,1.0237552,-5.2897924,-5.6341214)"
       inkscape:original-d="m 305.60039,236.03281 c 10.32047,-0.12741 21.02315,-0.63706 31.53473,-0.76447 10.51161,-0.12742 0.57338,0.63706 0.9556,0.76447 0.38224,0.12742 1.78379,0.19113 2.67568,0.19113 0.89191,0 19.04828,-0.70078 28.66797,-0.76448 9.61967,-0.0637 0.44593,1.27413 0.57335,1.72007"
       inkscape:path-effect="#path-effect37" />
    <path
       style="fill:#9e2098;fill-opacity:1;stroke:#7e2077;stroke-width:0.72348;stroke-dasharray:0.72348, 4.34088;stroke-dashoffset:0;stroke-opacity:1"
       d="m 1288.9305,1086.93 c -8.392,-12.2087 -17.6535,-25.7733 -20.5811,-30.1434 -2.9276,-4.3702 -5.5143,-8.1083 -5.7484,-8.307 -0.234,-0.1986 -4.4948,-6.3747 -9.4685,-13.7245 -4.9737,-7.3498 -15.0239,-22.1458 -22.3339,-32.8799 -7.31,-10.73408 -15.5586,-22.92361 -18.3301,-27.08781 -2.7716,-4.16419 -5.2277,-7.73379 -5.458,-7.93244 -0.447,-0.38563 -16.2798,-23.7382 -34.4906,-50.87208 -6.1131,-9.10846 -11.8522,-17.55986 -12.7536,-18.7809 -0.9013,-1.22103 -1.8942,-2.66808 -2.2064,-3.21566 -0.4805,-0.84288 4.8496,-0.92162 34.7465,-0.51334 19.4227,0.26525 41.3276,0.62177 48.6774,0.79228 7.3498,0.1705 25.3903,0.49232 40.09,0.71516 14.6996,0.22284 33.5528,0.55156 41.8958,0.73049 8.3431,0.17893 24.2707,0.51789 35.3948,0.75325 23.7077,0.5016 29.906,0.73396 30.3082,1.13621 0.2504,0.25036 -2.5069,7.76028 -4.608,12.55074 -0.3485,0.79457 -1.0402,2.58237 -1.5372,3.97288 -0.497,1.39051 -1.3083,3.50336 -1.803,4.69522 -0.4946,1.19187 -3.0104,7.53042 -5.5906,14.08567 -11.3297,28.78409 -15.8712,40.23398 -16.761,42.25702 -0.5242,1.19186 -4.7557,11.75612 -9.4034,23.47612 -4.6476,11.71999 -8.8614,22.28429 -9.3639,23.47609 -0.5025,1.1919 -1.8171,4.4424 -2.9213,7.2234 -1.1043,2.7811 -2.4108,6.0316 -2.9034,7.2235 -0.4927,1.1918 -2.4457,6.0676 -4.3401,10.8351 -1.8944,4.7675 -4.0006,9.9683 -4.6804,11.5575 -0.6798,1.5891 -2.1399,5.1647 -3.2445,7.9457 -1.1047,2.7811 -2.4053,6.0316 -2.8902,7.2235 -0.4849,1.1918 -1.6987,4.2798 -2.6973,6.8622 -0.9986,2.5824 -3.4597,8.7584 -5.4692,13.7245 -2.0095,4.9661 -4.1445,10.2482 -4.7445,11.7381 -0.6001,1.4898 -1.1888,2.7023 -1.3084,2.6944 -0.1196,-0.01 -7.0837,-10.0033 -15.4757,-22.212 z"
       id="path39"
       transform="scale(0.26458333)" />
    <path
       style="fill:#9e2098;fill-opacity:1;stroke:#7e2077;stroke-width:0.72348;stroke-dasharray:0.72348, 4.34088;stroke-dashoffset:0;stroke-opacity:1"
       d="m 1230.0514,1001.6594 c -40.7392,-59.86448 -73.9992,-108.94187 -73.9111,-109.06087 0.1979,-0.26727 204.0428,3.24799 220.9587,3.81039 6.7285,0.2237 12.3686,0.54169 12.5335,0.70666 0.2382,0.2382 -44.2368,112.32782 -47.8774,120.66452 -0.5204,1.1918 -3.4499,8.5056 -6.51,16.2527 -3.06,7.7471 -5.9816,15.0608 -6.4924,16.2527 -0.5108,1.1918 -2.4742,6.066 -4.3631,10.8314 -1.889,4.7654 -3.6796,9.1536 -3.9791,9.7516 -0.2995,0.598 -1.4346,3.5251 -2.5225,6.5048 -1.0878,2.9797 -2.2585,5.7264 -2.6016,6.1038 -0.343,0.3774 -0.6237,1.1123 -0.6237,1.6331 0,0.5208 -0.6208,2.3249 -1.3796,4.009 -0.7588,1.6842 -2.2582,5.3375 -3.332,8.1185 -1.0738,2.781 -2.1839,5.3815 -2.4668,5.7787 -0.2829,0.3973 -0.9054,2.0902 -1.3832,3.762 -0.4778,1.6718 -1.1184,3.194 -1.4236,3.3826 -0.3052,0.1886 -33.8869,-48.6371 -74.6261,-108.5016 z"
       id="path38"
       transform="scale(0.26458333)" />
    <path
       style="fill:#9e2098;fill-opacity:1;stroke:#7e2077;stroke-width:0.72348;stroke-dasharray:0.72348, 4.34088;stroke-dashoffset:0;stroke-opacity:1"
       d="m 1303.8276,1108.2775 c 0,-0.6423 -0.2569,-1.2761 -0.5708,-1.4086 -0.3139,-0.1324 -1.6954,-1.8583 -3.0699,-3.8354 -1.3746,-1.9771 -3.0681,-4.2325 -3.7633,-5.012 -0.6953,-0.7796 -1.2641,-1.8437 -1.2641,-2.3647 0,-0.521 -0.2702,-0.9473 -0.6003,-0.9473 -0.3302,0 -1.0615,-0.8939 -1.6253,-1.9864 -0.5637,-1.0926 -1.5938,-2.6166 -2.2891,-3.3868 -0.6952,-0.7701 -1.2641,-1.8266 -1.2641,-2.3476 0,-0.521 -0.332,-0.9473 -0.7378,-0.9473 -0.4058,0 -1.1372,-0.8894 -1.6253,-1.9765 -0.4881,-1.0871 -1.4563,-2.5499 -2.1515,-3.2506 -0.6953,-0.7007 -1.2641,-1.6834 -1.2641,-2.1837 0,-0.5004 -0.6501,-1.3158 -1.4447,-1.812 -0.7946,-0.4962 -1.4447,-1.387 -1.4447,-1.9796 0,-0.5926 -0.2701,-1.0774 -0.6003,-1.0774 -0.3301,0 -1.0615,-0.8939 -1.6252,-1.9864 -0.5638,-1.0926 -1.5939,-2.6166 -2.2891,-3.3868 -0.6953,-0.7702 -1.2641,-1.8266 -1.2641,-2.3476 0,-0.521 -0.332,-0.9473 -0.7379,-0.9473 -0.4058,0 -1.1371,-0.8895 -1.6252,-1.9766 -0.4881,-1.087 -1.4563,-2.5498 -2.1516,-3.2505 -0.6952,-0.7007 -1.2641,-1.7616 -1.2641,-2.3575 0,-0.5959 -0.2929,-1.0835 -0.6509,-1.0835 -0.3581,0 -1.3258,-1.0564 -2.1504,-2.3476 -2.815,-4.4075 -3.3393,-5.159 -4.6027,-6.5979 -0.6952,-0.7918 -1.2641,-1.866 -1.2641,-2.387 0,-0.521 -0.2701,-0.9473 -0.6002,-0.9473 -0.3302,0 -1.0611,-0.8939 -1.6242,-1.9865 -0.5631,-1.0925 -1.2183,-2.1489 -1.4561,-2.3476 -0.8621,-0.7203 -10.044,-14.5041 -10.044,-15.078 0,-0.3243 -0.6501,-1.1779 -1.4447,-1.897 -0.7945,-0.7191 -1.4502,-1.6634 -1.4571,-2.0984 -0.01,-0.4351 -0.8297,-1.5663 -1.8286,-2.5139 -0.9988,-0.9477 -1.6774,-1.8616 -1.508,-2.0311 0.1694,-0.1694 -0.4644,-1.1415 -1.4084,-2.1602 -0.9441,-1.0187 -1.5409,-2.1363 -1.3263,-2.4836 0.2147,-0.3473 0.039,-0.6315 -0.3902,-0.6315 -0.4292,0 -1.1748,-0.8939 -1.6567,-1.9864 -0.482,-1.0926 -1.4502,-2.4112 -2.1516,-2.9303 -0.7014,-0.5192 -1.2752,-1.4974 -1.2752,-2.1739 0,-0.6765 -0.6501,-1.636 -1.4447,-2.1322 -0.7946,-0.4962 -1.4447,-1.5687 -1.4447,-2.3834 0,-0.81466 -0.276,-1.31057 -0.6135,-1.10205 -0.3374,0.20853 -1.0687,-0.50365 -1.6252,-1.58264 -0.5565,-1.07898 -1.5807,-2.59192 -2.2759,-3.36209 -0.6953,-0.77017 -1.2641,-1.82659 -1.2641,-2.34761 0,-0.52102 -0.2701,-0.94731 -0.6003,-0.94731 -0.3301,0 -1.0615,-0.8939 -1.6253,-1.98644 -0.5637,-1.09254 -1.5938,-2.61657 -2.2891,-3.38674 -0.6952,-0.77017 -1.2641,-1.8266 -1.2641,-2.34761 0,-0.52102 -0.2701,-0.94731 -0.6002,-0.94731 -0.3302,0 -1.0616,-0.8939 -1.6253,-1.98644 -0.5637,-1.09255 -1.5938,-2.61658 -2.2891,-3.38675 -0.6952,-0.77017 -1.2641,-1.7995 -1.2641,-2.28742 0,-0.48791 -0.2438,-0.99546 -0.5417,-1.12789 -0.9051,-0.40224 -5.237,-6.24271 -5.237,-7.06067 0,-0.42059 -0.2702,-0.7647 -0.6003,-0.7647 -0.3302,0 -1.0615,-0.8939 -1.6253,-1.98644 -0.5637,-1.09255 -1.5938,-2.61658 -2.2891,-3.38675 -0.6952,-0.77017 -1.2641,-1.66035 -1.2641,-1.97818 0,-0.31784 -0.5688,-1.24224 -1.2641,-2.05424 -0.6952,-0.812 -1.1911,-1.62061 -1.102,-1.79692 0.089,-0.1763 -0.6455,-1.19188 -1.6325,-2.25682 -0.9869,-1.06495 -1.6308,-2.09996 -1.4307,-2.30002 0.2001,-0.20006 -0.2843,-0.81765 -1.0763,-1.37243 -0.7921,-0.55477 -1.4401,-1.56216 -1.4401,-2.23864 0,-0.67648 -0.6501,-1.63597 -1.4447,-2.13219 -0.7946,-0.49622 -1.4447,-1.47138 -1.4447,-2.16703 0,-0.69564 -0.6501,-1.6708 -1.4447,-2.16702 -0.7946,-0.49622 -1.4447,-1.33667 -1.4447,-1.86766 0,-0.53099 -0.6501,-1.55378 -1.4446,-2.27286 -0.7946,-0.71908 -1.4447,-1.56535 -1.4447,-1.88059 0,-0.31525 -0.8066,-1.44345 -1.7924,-2.50712 -0.9857,-1.06367 -1.6167,-2.21811 -1.402,-2.56542 0.2146,-0.3473 0.039,-0.63146 -0.3902,-0.63146 -0.4293,0 -1.1775,-0.8939 -1.6627,-1.98644 -0.4853,-1.09255 -1.4535,-2.61658 -2.1516,-3.38675 -0.6981,-0.77017 -1.2692,-1.82659 -1.2692,-2.34761 0,-0.52102 -0.2702,-0.94731 -0.6003,-0.94731 -0.3302,0 -1.0615,-0.8939 -1.6253,-1.98644 -0.5637,-1.09254 -1.3879,-2.37257 -1.8315,-2.84451 -0.6842,-0.72806 -7.76,-10.96767 -10.0286,-14.51281 -0.3973,-0.62084 -1.1888,-1.7092 -1.7589,-2.41856 -2.7642,-3.43946 -2.9922,-3.40794 22.5997,-3.1249 13.1694,0.14565 33.371,0.43195 44.8923,0.63623 11.5214,0.20428 29.8869,0.51388 40.8124,0.68801 10.9254,0.17412 29.1284,0.48668 40.4511,0.69458 11.3227,0.20789 27.2504,0.4393 35.3948,0.51422 8.5859,0.079 15.1874,0.44022 15.7109,0.85969 0.6218,0.4982 0.9029,0.45585 0.9029,-0.136 0,-0.55451 0.559,-0.68206 1.5754,-0.35948 0.8664,0.275 6.1485,0.48805 11.738,0.47344 5.9781,-0.0156 10.5346,0.28112 11.0657,0.72065 0.5672,0.4694 0.9029,0.483 0.9029,0.0366 0,-0.39084 0.8426,-0.54956 1.8723,-0.35271 1.2177,0.23278 1.5642,0.54833 0.991,0.90259 -0.4847,0.29957 -0.7044,0.83093 -0.4882,1.18081 0.2163,0.34987 -0.2187,1.93022 -0.9664,3.51188 -0.7478,1.58167 -1.3707,3.28207 -1.3842,3.77868 -0.013,0.49661 -0.3638,0.90293 -0.7785,0.90293 -0.4147,0 -0.6708,0.40632 -0.5691,0.90293 0.2255,1.10149 -2.334,7.95898 -3.1926,8.55371 -0.3393,0.23505 -0.5354,0.72264 -0.4357,1.08352 0.256,0.92683 -0.8252,3.90658 -1.4177,3.90719 -0.2712,2.8e-4 -0.5426,0.85538 -0.6032,1.90022 -0.061,1.04483 -0.426,2.10103 -0.8121,2.3471 -0.3862,0.24607 -0.9314,1.50382 -1.2115,2.79501 -0.2801,1.29118 -0.8277,2.34761 -1.2169,2.34761 -0.3892,0 -0.4978,0.33935 -0.2415,0.75411 0.2563,0.41476 -0.01,1.47595 -0.585,2.3582 -0.5781,0.88226 -1.282,2.65576 -1.5643,3.94112 -0.2823,1.28536 -0.8473,2.33702 -1.2555,2.33702 -0.4083,0 -0.5695,0.45026 -0.3583,1.00058 0.2112,0.55033 -0.038,1.60675 -0.5528,2.34762 -0.5152,0.74086 -1.1666,2.40345 -1.4476,3.69463 -0.2809,1.29119 -0.8101,2.34762 -1.1758,2.34762 -0.3657,0 -0.6649,0.57778 -0.6649,1.28395 0,0.70618 -0.4761,1.9637 -1.058,2.79448 -0.5819,0.83079 -0.863,1.70561 -0.6245,1.94404 0.2384,0.23844 -0.055,1.1798 -0.6531,2.09193 -0.5977,0.91212 -1.3177,2.71006 -1.6,3.99542 -0.2823,1.28536 -0.8317,2.33702 -1.2208,2.33702 -0.3892,0 -0.5488,0.25694 -0.3547,0.57099 0.1941,0.31404 -0.067,1.533 -0.5809,2.70878 -0.5136,1.17579 -1.3572,3.11296 -1.8748,4.30482 -0.5176,1.19187 -1.0308,2.64071 -1.1404,3.21965 -0.1097,0.57895 -0.5256,1.71663 -0.9242,2.5282 -1.7258,3.51323 -3.6931,8.31841 -3.6931,9.02054 0,0.41908 -0.3599,0.76197 -0.7997,0.76197 -0.4397,0 -0.636,0.42637 -0.436,0.94749 0.2,0.52111 -0.2418,2.22765 -0.9817,3.79229 -0.7399,1.56465 -1.3564,3.25113 -1.3698,3.74774 -0.014,0.49661 -0.3134,0.90292 -0.6665,0.90292 -0.3531,0 -0.8554,1.13769 -1.1162,2.5282 -0.2609,1.39045 -0.8038,2.52815 -1.2066,2.52815 -0.4027,0 -0.5225,0.3394 -0.2661,0.7541 0.2563,0.4148 -0.01,1.476 -0.585,2.3582 -0.5781,0.8823 -1.2821,2.6558 -1.5644,3.9412 -0.2823,1.2853 -0.8317,2.337 -1.2208,2.337 -0.3892,0 -0.5488,0.2569 -0.3547,0.571 0.1941,0.314 -0.067,1.533 -0.5809,2.7087 -1.4074,3.2223 -2.3709,5.6855 -2.4637,6.2989 -0.046,0.3021 -0.6406,1.6023 -1.3219,2.8893 -0.6813,1.2871 -1.3271,2.8507 -1.435,3.4748 -0.108,0.6241 -0.6929,2.0869 -1.2997,3.2506 -0.6068,1.1636 -1.1053,2.5221 -1.1078,3.0187 0,0.4966 -0.3437,0.9029 -0.7584,0.9029 -0.4147,0 -0.6709,0.4063 -0.5692,0.9029 0.2047,1 -2.2918,7.9164 -3.0636,8.4876 -0.2685,0.1986 -0.7173,1.4176 -0.9974,2.7087 -0.2802,1.2912 -0.8278,2.3477 -1.2169,2.3477 -0.3892,0 -0.4979,0.3393 -0.2415,0.7541 0.2563,0.4147 -0.01,1.4759 -0.585,2.3582 -0.5781,0.8822 -1.2821,2.6557 -1.5644,3.9411 -0.2823,1.2853 -0.8667,2.337 -1.2986,2.337 -0.4319,0 -0.5816,0.2037 -0.3326,0.4528 0.249,0.249 -0.085,1.4679 -0.7425,2.7087 -0.6574,1.2409 -1.2837,2.7667 -1.3916,3.3908 -0.108,0.6241 -0.6928,2.0869 -1.2997,3.2506 -0.6068,1.1636 -1.1053,2.5221 -1.1078,3.0187 0,0.4966 -0.3437,0.9029 -0.7584,0.9029 -0.4147,0 -0.6708,0.4063 -0.5692,0.9029 0.2048,1 -2.2918,7.9164 -3.0636,8.4876 -0.2685,0.1986 -0.7173,1.4176 -0.9974,2.7087 -0.2801,1.2912 -0.7273,2.3479 -0.9937,2.3482 -0.2664,2e-4 -0.5339,0.8553 -0.5944,1.9002 -0.06,1.0448 -0.426,2.101 -0.8122,2.3471 -0.3862,0.246 -0.9313,1.5038 -1.2114,2.795 -0.2802,1.2912 -0.8278,2.3476 -1.2169,2.3476 -0.3892,0 -0.5071,0.3244 -0.2621,0.7209 0.245,0.3964 -0.024,1.6154 -0.5983,2.7087 -1.4093,2.6841 -2.849,6.1027 -3.0823,7.3194 -0.3106,1.6199 -1.736,2.7483 -1.736,1.3743 z"
       id="path40"
       transform="scale(0.26458333)" />
    <path
       style="fill:#9e2098;fill-opacity:1;stroke:#7e2077;stroke-width:0.72348;stroke-dasharray:0.72348, 4.34088;stroke-dashoffset:0;stroke-opacity:1"
       d=""
       id="path41"
       transform="scale(0.26458333)" />
    <path
       style="fill:#9e2098;fill-opacity:1;stroke:#7e2077;stroke-width:0.191421;stroke-dasharray:0.191421, 1.14852;stroke-dashoffset:0;stroke-opacity:1"
       d="m 347.81866,291.94093 c 0,-0.12264 -0.1198,-0.22299 -0.26622,-0.22299 -0.24361,0 -0.54634,-0.45371 -0.44524,-0.66723 0.0233,-0.0494 -0.15098,-0.22542 -0.38749,-0.39108 -0.23651,-0.16566 -0.43148,-0.40383 -0.4333,-0.52925 -0.003,-0.12544 -0.21233,-0.42627 -0.46781,-0.66852 -0.25572,-0.24249 -0.41686,-0.56462 -0.35849,-0.7167 0.0634,-0.16526 -0.009,-0.27625 -0.18066,-0.27625 -0.2277,0 -0.58988,-0.4888 -0.53104,-0.71671 0.007,-0.0262 -0.15968,-0.21979 -0.36992,-0.43 -0.21021,-0.21024 -0.38221,-0.50824 -0.38221,-0.6622 0,-0.15398 -0.17201,-0.372 -0.38225,-0.48453 -0.21023,-0.1125 -0.38224,-0.35285 -0.38224,-0.53411 0,-0.18124 -0.17201,-0.43696 -0.38224,-0.56825 -0.21024,-0.13128 -0.38225,-0.35367 -0.38225,-0.49416 0,-0.14049 -0.172,-0.41108 -0.38224,-0.60135 -0.21021,-0.19026 -0.38222,-0.46429 -0.38222,-0.60899 0,-0.14467 -0.12115,-0.30953 -0.26918,-0.36634 -0.14807,-0.0568 -0.37349,-0.35512 -0.50099,-0.66291 -0.12751,-0.30782 -0.29694,-0.55965 -0.37656,-0.55965 -0.0796,0 -0.24905,-0.25183 -0.37655,-0.55962 -0.12748,-0.30779 -0.35838,-0.6082 -0.51311,-0.66757 -0.1547,-0.0594 -0.23548,-0.18206 -0.17949,-0.27263 0.056,-0.0906 -0.10793,-0.36168 -0.36425,-0.60248 -0.25631,-0.2408 -0.42059,-0.51131 -0.36508,-0.60116 0.0555,-0.0898 0.01,-0.16333 -0.10144,-0.16333 -0.11131,0 -0.2024,-0.12901 -0.2024,-0.28667 0,-0.15767 -0.086,-0.28668 -0.19111,-0.28668 -0.10512,0 -0.19111,-0.0896 -0.19111,-0.19912 0,-0.10951 -0.17203,-0.38373 -0.38224,-0.60939 -0.21024,-0.22567 -0.38225,-0.52816 -0.38225,-0.6722 0,-0.14407 -0.086,-0.20879 -0.19113,-0.1438 -0.1051,0.065 -0.19111,-0.0159 -0.19111,-0.17984 0,-0.16388 -0.086,-0.29797 -0.19111,-0.29797 -0.10512,0 -0.19114,-0.12902 -0.19114,-0.28668 0,-0.15767 -0.086,-0.28668 -0.1911,-0.28668 -0.10512,0 -0.19114,-0.12901 -0.19114,-0.28667 0,-0.15769 -0.086,-0.28668 -0.19111,-0.28668 -0.10512,0 -0.19111,-0.12901 -0.19111,-0.28667 0,-0.1577 -0.0715,-0.28671 -0.15883,-0.28671 -0.0874,0 -0.28088,-0.23651 -0.43002,-0.52557 -0.14915,-0.28905 -0.4217,-0.6923 -0.60566,-0.89606 -0.18394,-0.20378 -0.33446,-0.47614 -0.33446,-0.60523 0,-0.12909 -0.0695,-0.26337 -0.15446,-0.29843 -0.27443,-0.11316 -1.36335,-1.82676 -1.23952,-1.95059 0.0659,-0.0659 0.0265,-0.11985 -0.0875,-0.11985 -0.11406,0 -0.39484,-0.30329 -0.62394,-0.674 -0.2291,-0.37068 -0.54327,-0.80071 -0.69815,-0.9556 -0.15489,-0.15488 -0.22075,-0.28162 -0.14635,-0.28162 0.0744,0 -0.0901,-0.22537 -0.3656,-0.50086 -0.27548,-0.27548 -0.45971,-0.5675 -0.40939,-0.64889 0.0503,-0.0814 -0.0425,-0.19944 -0.20621,-0.26225 -0.16375,-0.0628 -0.24419,-0.20085 -0.17876,-0.30671 0.0654,-0.10586 0.0279,-0.19248 -0.0834,-0.19248 -0.11131,0 -0.20241,-0.085 -0.20241,-0.18894 0,-0.16777 -0.25606,-0.53044 -0.86003,-1.21801 -0.10512,-0.11964 -0.31316,-0.45408 -0.46231,-0.74313 -0.14917,-0.28909 -0.33334,-0.5256 -0.40931,-0.5256 -0.076,0 -0.19206,-0.215 -0.25802,-0.47779 -0.066,-0.26279 -0.20875,-0.4778 -0.31734,-0.4778 -0.10858,0 -0.28736,-0.25801 -0.3973,-0.57336 -0.10993,-0.31535 -0.28194,-0.57336 -0.38224,-0.57336 -0.1003,0 -0.27231,-0.25801 -0.38224,-0.57335 -0.10991,-0.31535 -0.28192,-0.57336 -0.38222,-0.57336 -0.1003,0 -0.26993,-0.25112 -0.3769,-0.55804 -0.107,-0.30692 -0.31753,-0.60524 -0.46786,-0.66292 -0.15034,-0.0577 -0.27334,-0.25891 -0.27334,-0.44715 0,-0.18825 -0.17201,-0.44969 -0.38222,-0.58098 -0.21024,-0.13129 -0.38224,-0.3893 -0.38224,-0.57336 0,-0.18405 -0.17201,-0.44207 -0.38225,-0.57336 -0.21024,-0.13129 -0.38224,-0.40998 -0.38224,-0.61933 0,-0.20934 -0.12322,-0.38062 -0.27379,-0.38062 -0.1506,0 -0.33494,-0.19351 -0.40966,-0.43002 -0.0747,-0.23651 -0.29554,-0.5424 -0.49069,-0.67975 -0.19516,-0.13736 -0.35481,-0.39618 -0.35481,-0.57517 0,-0.17899 -0.172,-0.43285 -0.38224,-0.56414 -0.21024,-0.13129 -0.38225,-0.3893 -0.38225,-0.57336 0,-0.18405 -0.172,-0.44207 -0.38224,-0.57336 -0.21024,-0.13129 -0.38224,-0.41507 -0.38224,-0.63061 0,-0.21554 -0.073,-0.34676 -0.1623,-0.29158 -0.0893,0.0552 -0.28279,-0.13326 -0.43003,-0.41874 -0.14724,-0.28548 -0.42031,-0.68805 -0.60684,-0.89459 -0.18654,-0.20654 -0.29999,-0.47758 -0.25213,-0.60231 0.0479,-0.12472 -0.079,-0.2702 -0.28199,-0.32327 -0.23931,-0.0626 -0.36901,-0.26289 -0.36901,-0.5699 0,-0.31267 -0.12978,-0.50734 -0.38225,-0.57336 -0.21023,-0.055 -0.38224,-0.25933 -0.38224,-0.45412 0,-0.19478 -0.17201,-0.46158 -0.38224,-0.59287 -0.21024,-0.13129 -0.38225,-0.3893 -0.38225,-0.57336 0,-0.18405 -0.172,-0.44206 -0.38221,-0.57336 -0.21024,-0.13129 -0.38225,-0.41506 -0.38225,-0.63061 0,-0.21554 -0.0817,-0.34141 -0.18153,-0.27971 -0.22513,0.13913 -0.64362,-0.60134 -0.48495,-0.85806 0.0636,-0.10294 -0.0154,-0.18717 -0.17555,-0.18717 -0.16018,0 -0.38331,-0.17201 -0.49581,-0.38224 -0.11252,-0.21023 -0.14681,-0.38224 -0.0762,-0.38224 0.0706,0 -0.0932,-0.22153 -0.36396,-0.4923 -0.27075,-0.27076 -0.4453,-0.61478 -0.38786,-0.76448 0.0625,-0.16286 -0.0138,-0.27217 -0.18981,-0.27217 -0.16182,0 -0.35536,-0.19351 -0.43008,-0.43002 -0.0747,-0.23652 -0.29554,-0.54241 -0.4907,-0.67976 -0.19515,-0.13735 -0.3548,-0.39618 -0.3548,-0.57517 0,-0.17898 -0.17201,-0.43285 -0.38225,-0.56414 -0.21023,-0.13129 -0.38224,-0.37611 -0.38224,-0.54404 0,-0.16794 -0.21582,-0.47511 -0.47961,-0.68261 -0.26379,-0.20749 -0.43847,-0.44388 -0.38814,-0.5253 0.0503,-0.0814 -0.11822,-0.34504 -0.37452,-0.58584 -0.25633,-0.24079 -0.42021,-0.51191 -0.36425,-0.60249 0.056,-0.0906 -0.0267,-0.21397 -0.18365,-0.27422 -0.15698,-0.0602 -0.36806,-0.34656 -0.46905,-0.63626 l -0.18362,-0.52673 3.84931,0.0193 c 2.11712,0.0106 3.95682,0.0876 4.08821,0.17109 0.13629,0.0866 0.23892,0.0649 0.23892,-0.0506 0,-0.27886 0.63553,-0.25488 0.92533,0.0349 0.18899,0.18899 0.2718,0.18147 0.40677,-0.0369 0.14028,-0.22699 0.25937,-0.23326 0.69141,-0.0364 0.39267,0.17891 0.55583,0.18298 0.65876,0.0165 0.0862,-0.1395 0.30461,-0.16706 0.59068,-0.0745 0.24963,0.0807 2.51796,0.15458 5.04074,0.16409 2.5228,0.009 4.69439,0.0867 4.82578,0.1716 0.13788,0.0891 0.2389,0.0687 0.2389,-0.0481 0,-0.22931 0.69477,-0.27872 0.8305,-0.0591 0.0487,0.0788 2.13936,0.13353 4.64592,0.12155 2.50656,-0.012 4.70093,0.0518 4.8764,0.14181 0.20895,0.10714 0.34703,0.0817 0.40016,-0.0738 0.0633,-0.18529 0.21347,-0.1886 0.68432,-0.0151 0.39298,0.14482 0.60325,0.15425 0.60325,0.0271 0,-0.11896 0.20534,-0.14143 0.52557,-0.0575 0.28908,0.0757 2.58966,0.14985 5.11246,0.16469 2.52278,0.0148 4.69437,0.0963 4.82576,0.18098 0.1405,0.0906 0.2389,0.066 0.2389,-0.0597 0,-0.11752 0.0907,-0.15763 0.2015,-0.0891 0.11084,0.0685 2.06743,0.12881 4.34798,0.13404 2.72928,0.006 4.23873,0.0819 4.41645,0.2212 0.20077,0.15743 0.2907,0.15015 0.35079,-0.0284 0.0444,-0.13205 0.16785,-0.18628 0.27426,-0.12052 0.10642,0.0658 1.47048,0.12112 3.03123,0.123 2.42877,0.003 2.85596,0.0478 2.96418,0.31164 0.11403,0.27791 0.13853,0.27602 0.24931,-0.0193 0.1845,-0.49169 0.64837,-0.10774 0.64837,0.53666 0,0.29664 -0.0967,0.5716 -0.215,0.61102 -0.11825,0.0394 -0.215,0.28221 -0.215,0.53954 0,0.25733 -0.12306,0.51509 -0.27348,0.57281 -0.16208,0.0622 -0.26657,0.34753 -0.25651,0.70065 0.009,0.32764 -0.0826,0.6289 -0.20434,0.66947 -0.12171,0.0406 -0.22127,0.23245 -0.22127,0.42642 0,0.19396 -0.13737,0.49002 -0.30525,0.6579 -0.16788,0.16789 -0.25755,0.42955 -0.19926,0.58148 0.0583,0.15193 -0.0193,0.40159 -0.17253,0.5548 -0.15322,0.15321 -0.27858,0.45057 -0.27858,0.6608 0,0.21023 -0.1075,0.49588 -0.23889,0.63479 -0.1314,0.1389 -0.26729,0.41657 -0.30195,0.61704 -0.0347,0.20048 -0.1855,0.55136 -0.33515,0.77974 -0.14962,0.22838 -0.2165,0.4708 -0.14859,0.5387 0.0679,0.0679 0.008,0.26294 -0.13377,0.43341 -0.14147,0.17046 -0.28445,0.48831 -0.31771,0.70631 -0.0333,0.21801 -0.14404,0.49705 -0.24614,0.62009 -0.10213,0.12303 -0.12909,0.28029 -0.0599,0.34946 0.0692,0.0692 0.0217,0.12575 -0.10563,0.12575 -0.12723,0 -0.21378,0.10751 -0.19229,0.2389 0.0214,0.1314 -0.0608,0.48101 -0.18275,0.77692 -0.12198,0.29591 -0.22178,0.61843 -0.22178,0.7167 0,0.0983 -0.0952,0.17868 -0.21156,0.17868 -0.11636,0 -0.16208,0.129 -0.10157,0.28668 0.0605,0.15767 0.0368,0.28668 -0.0528,0.28668 -0.16973,0 -0.37661,0.524 -0.52671,1.33426 -0.0483,0.26082 -0.1756,0.52844 -0.28284,0.59472 -0.10726,0.0663 -0.19796,0.1969 -0.20156,0.29026 -0.004,0.0934 -0.0823,0.36886 -0.17481,0.61222 -0.0925,0.24335 -0.16822,0.56586 -0.16822,0.71669 0,0.15083 -0.0911,0.27424 -0.2024,0.27424 -0.11132,0 -0.14923,0.086 -0.0843,0.19112 0.065,0.10512 0.0233,0.19112 -0.0927,0.19112 -0.11594,0 -0.19767,0.10751 -0.18166,0.2389 0.0448,0.36788 -0.22853,1.09894 -0.4109,1.09894 -0.0896,0 -0.11666,0.12031 -0.0602,0.26735 0.0564,0.14704 0.009,0.32499 -0.1047,0.39544 -0.11398,0.0704 -0.15777,0.20816 -0.0973,0.30601 0.0605,0.0978 0.0151,0.17792 -0.10081,0.17792 -0.11594,0 -0.19767,0.1075 -0.18166,0.2389 0.0468,0.38361 -0.23196,1.09894 -0.42818,1.09894 -0.0991,0 -0.12705,0.0858 -0.0622,0.19078 0.0649,0.10493 -0.0161,0.38208 -0.17984,0.61588 -0.16375,0.23381 -0.29773,0.54112 -0.29773,0.68291 0,0.14179 -0.13396,0.39176 -0.29768,0.55547 -0.16373,0.16372 -0.24974,0.42258 -0.19117,0.57524 0.0586,0.15266 -0.0225,0.46173 -0.18012,0.6868 -0.15764,0.22508 -0.28663,0.55494 -0.28663,0.73303 0,0.17808 -0.0958,0.35573 -0.21296,0.39477 -0.11713,0.039 -0.24072,0.32392 -0.27466,0.63306 -0.0339,0.30915 -0.15312,0.59254 -0.26485,0.6298 -0.11171,0.0372 -0.20315,0.26503 -0.20315,0.50617 0,0.24117 -0.11824,0.53663 -0.26278,0.65656 -0.14452,0.11997 -0.26279,0.44943 -0.26279,0.73216 0,0.28271 -0.0968,0.54628 -0.215,0.58571 -0.11827,0.0394 -0.21503,0.26897 -0.21503,0.51014 0,0.24114 -0.13186,0.5479 -0.29302,0.68167 -0.16119,0.13375 -0.25858,0.3378 -0.21646,0.45342 0.0743,0.20378 -0.0257,0.46093 -0.69958,1.80245 -0.17595,0.35015 -0.31988,0.79113 -0.31988,0.97996 0,0.18886 -0.12626,0.44815 -0.28057,0.57621 -0.15433,0.12806 -0.27313,0.28911 -0.26405,0.35785 0.0612,0.46276 -0.0704,0.79393 -0.31541,0.79393 -0.15769,0 -0.2867,0.086 -0.2867,0.19114 0,0.10509 0.0786,0.19111 0.17467,0.19111 0.20286,0 -0.55988,1.94061 -0.8419,2.14209 -0.10419,0.0744 -0.19862,0.24643 -0.20979,0.38225 -0.0111,0.13578 -0.0334,0.3974 -0.0494,0.58136 -0.0161,0.18394 -0.0936,0.32428 -0.17245,0.31182 -0.36859,-0.0582 -0.49946,0.045 -0.25403,0.20036 0.23146,0.14648 0.22439,0.24392 -0.0478,0.65927 -0.17565,0.26807 -0.31935,0.61327 -0.31935,0.76716 0,0.15385 -0.13925,0.41899 -0.30943,0.58917 -0.17021,0.17018 -0.2559,0.36298 -0.19045,0.42841 0.0654,0.0654 0,0.29911 -0.14332,0.51927 -0.14425,0.22019 -0.3234,0.67856 -0.39809,1.01865 -0.0747,0.3401 -0.21498,0.61833 -0.31174,0.61833 -0.0967,0 -0.17594,0.16587 -0.17594,0.36859 0,0.20273 -0.13735,0.50594 -0.30523,0.67384 -0.1679,0.16788 -0.25754,0.42955 -0.19925,0.58148 0.0583,0.15192 -0.0193,0.40158 -0.17257,0.55478 -0.15319,0.15322 -0.27855,0.45058 -0.27855,0.66082 0,0.21021 -0.1075,0.49588 -0.23889,0.63479 -0.13139,0.1389 -0.2676,0.42455 -0.30266,0.63479 -0.0351,0.21021 -0.14256,0.46394 -0.23889,0.5638 -0.0963,0.0999 -0.17516,0.34459 -0.17516,0.54387 0,0.34343 -0.0901,0.55828 -0.82677,1.9712 -0.17044,0.32687 -0.26759,0.63659 -0.21592,0.68826 0.0517,0.0517 -0.0361,0.34325 -0.19497,0.64797 -0.15891,0.30469 -0.28946,0.65434 -0.29012,0.77697 0,0.12264 -0.0821,0.25165 -0.18105,0.28668 -0.0989,0.035 -0.22416,0.31078 -0.27827,0.61275 -0.10197,0.56893 -0.30633,0.92517 -0.30633,0.53398 z"
       id="path43-6" />
    <path
       style="fill:#9e2098;fill-opacity:1;stroke:#7e2077;stroke-width:0.191421;stroke-dasharray:0.191421, 1.14852;stroke-dashoffset:0;stroke-opacity:1"
       d="m 343.05984,292.34943 c 0,-0.12264 -0.1198,-0.22299 -0.26622,-0.22299 -0.24361,0 -0.54634,-0.45371 -0.44524,-0.66723 0.0233,-0.0494 -0.15098,-0.22542 -0.38749,-0.39108 -0.23651,-0.16566 -0.43148,-0.40383 -0.4333,-0.52925 -0.003,-0.12544 -0.21233,-0.42627 -0.46781,-0.66852 -0.25572,-0.24249 -0.41686,-0.56462 -0.35849,-0.7167 0.0634,-0.16526 -0.009,-0.27625 -0.18066,-0.27625 -0.2277,0 -0.58988,-0.4888 -0.53104,-0.71671 0.007,-0.0262 -0.15968,-0.21979 -0.36992,-0.43 -0.21021,-0.21024 -0.38221,-0.50824 -0.38221,-0.6622 0,-0.15398 -0.17201,-0.372 -0.38225,-0.48453 -0.21023,-0.1125 -0.38224,-0.35285 -0.38224,-0.53411 0,-0.18124 -0.17201,-0.43696 -0.38224,-0.56825 -0.21024,-0.13128 -0.38225,-0.35367 -0.38225,-0.49416 0,-0.14049 -0.172,-0.41108 -0.38224,-0.60135 -0.21021,-0.19026 -0.38222,-0.46429 -0.38222,-0.60899 0,-0.14467 -0.12115,-0.30953 -0.26918,-0.36634 -0.14807,-0.0568 -0.37349,-0.35512 -0.50099,-0.66291 -0.12751,-0.30782 -0.29694,-0.55965 -0.37656,-0.55965 -0.0796,0 -0.24905,-0.25183 -0.37655,-0.55962 -0.12748,-0.30779 -0.35838,-0.6082 -0.51311,-0.66757 -0.1547,-0.0594 -0.23548,-0.18206 -0.17949,-0.27263 0.056,-0.0906 -0.10793,-0.36168 -0.36425,-0.60248 -0.25631,-0.2408 -0.42059,-0.51131 -0.36508,-0.60116 0.0555,-0.0898 0.01,-0.16333 -0.10144,-0.16333 -0.11131,0 -0.2024,-0.12901 -0.2024,-0.28667 0,-0.15767 -0.086,-0.28668 -0.19111,-0.28668 -0.10512,0 -0.19111,-0.0896 -0.19111,-0.19912 0,-0.10951 -0.17203,-0.38373 -0.38224,-0.60939 -0.21024,-0.22567 -0.38225,-0.52816 -0.38225,-0.6722 0,-0.14407 -0.086,-0.20879 -0.19113,-0.1438 -0.1051,0.065 -0.19111,-0.0159 -0.19111,-0.17984 0,-0.16388 -0.086,-0.29797 -0.19111,-0.29797 -0.10512,0 -0.19114,-0.12902 -0.19114,-0.28668 0,-0.15767 -0.086,-0.28668 -0.1911,-0.28668 -0.10512,0 -0.19114,-0.12901 -0.19114,-0.28667 0,-0.15769 -0.086,-0.28668 -0.19111,-0.28668 -0.10512,0 -0.19111,-0.12901 -0.19111,-0.28667 0,-0.1577 -0.0715,-0.28671 -0.15883,-0.28671 -0.0874,0 -0.28088,-0.23651 -0.43002,-0.52557 -0.14915,-0.28905 -0.4217,-0.6923 -0.60566,-0.89606 -0.18394,-0.20378 -0.33446,-0.47614 -0.33446,-0.60523 0,-0.12909 -0.0695,-0.26337 -0.15446,-0.29843 -0.27443,-0.11316 -1.36335,-1.82676 -1.23952,-1.95059 0.0659,-0.0659 0.0265,-0.11985 -0.0875,-0.11985 -0.11406,0 -0.39484,-0.30329 -0.62394,-0.674 -0.2291,-0.37068 -0.54327,-0.80071 -0.69815,-0.9556 -0.15489,-0.15488 -0.22075,-0.28162 -0.14635,-0.28162 0.0744,0 -0.0901,-0.22537 -0.3656,-0.50086 -0.27548,-0.27548 -0.45971,-0.5675 -0.40939,-0.64889 0.0503,-0.0814 -0.0425,-0.19944 -0.20621,-0.26225 -0.16375,-0.0628 -0.24419,-0.20085 -0.17876,-0.30671 0.0654,-0.10586 0.0279,-0.19248 -0.0834,-0.19248 -0.11131,0 -0.20241,-0.085 -0.20241,-0.18894 0,-0.16777 -0.25606,-0.53044 -0.86003,-1.21801 -0.10512,-0.11964 -0.31316,-0.45408 -0.46231,-0.74313 -0.14917,-0.28909 -0.33334,-0.5256 -0.40931,-0.5256 -0.076,0 -0.19206,-0.215 -0.25802,-0.47779 -0.066,-0.26279 -0.20875,-0.4778 -0.31734,-0.4778 -0.10858,0 -0.28736,-0.25801 -0.3973,-0.57336 -0.10993,-0.31535 -0.28194,-0.57336 -0.38224,-0.57336 -0.1003,0 -0.27231,-0.25801 -0.38224,-0.57335 -0.10991,-0.31535 -0.28192,-0.57336 -0.38222,-0.57336 -0.1003,0 -0.26993,-0.25112 -0.3769,-0.55804 -0.107,-0.30692 -0.31753,-0.60524 -0.46786,-0.66292 -0.15034,-0.0577 -0.27334,-0.25891 -0.27334,-0.44715 0,-0.18825 -0.17201,-0.44969 -0.38222,-0.58098 -0.21024,-0.13129 -0.38224,-0.3893 -0.38224,-0.57336 0,-0.18405 -0.17201,-0.44207 -0.38225,-0.57336 -0.21024,-0.13129 -0.38224,-0.40998 -0.38224,-0.61933 0,-0.20934 -0.12322,-0.38062 -0.27379,-0.38062 -0.1506,0 -0.33494,-0.19351 -0.40966,-0.43002 -0.0747,-0.23651 -0.29554,-0.5424 -0.49069,-0.67975 -0.19516,-0.13736 -0.35481,-0.39618 -0.35481,-0.57517 0,-0.17899 -0.172,-0.43285 -0.38224,-0.56414 -0.21024,-0.13129 -0.38225,-0.3893 -0.38225,-0.57336 0,-0.18405 -0.172,-0.44207 -0.38224,-0.57336 -0.21024,-0.13129 -0.38224,-0.41507 -0.38224,-0.63061 0,-0.21554 -0.073,-0.34676 -0.1623,-0.29158 -0.0893,0.0552 -0.28279,-0.13326 -0.43003,-0.41874 -0.14724,-0.28548 -0.42031,-0.68805 -0.60684,-0.89459 -0.18654,-0.20654 -0.29999,-0.47758 -0.25213,-0.60231 0.0479,-0.12472 -0.079,-0.2702 -0.28199,-0.32327 -0.23931,-0.0626 -0.36901,-0.26289 -0.36901,-0.5699 0,-0.31267 -0.12978,-0.50734 -0.38225,-0.57336 -0.21023,-0.055 -0.38224,-0.25933 -0.38224,-0.45412 0,-0.19478 -0.17201,-0.46158 -0.38224,-0.59287 -0.21024,-0.13129 -0.38225,-0.3893 -0.38225,-0.57336 0,-0.18405 -0.172,-0.44206 -0.38221,-0.57336 -0.21024,-0.13129 -0.38225,-0.41506 -0.38225,-0.63061 0,-0.21554 -0.0817,-0.34141 -0.18153,-0.27971 -0.22513,0.13913 -0.64362,-0.60134 -0.48495,-0.85806 0.0636,-0.10294 -0.0154,-0.18717 -0.17555,-0.18717 -0.16018,0 -0.38331,-0.17201 -0.49581,-0.38224 -0.11252,-0.21023 -0.14681,-0.38224 -0.0762,-0.38224 0.0706,0 -0.0932,-0.22153 -0.36396,-0.4923 -0.27075,-0.27076 -0.4453,-0.61478 -0.38786,-0.76448 0.0625,-0.16286 -0.0138,-0.27217 -0.18981,-0.27217 -0.16182,0 -0.35536,-0.19351 -0.43008,-0.43002 -0.0747,-0.23652 -0.29554,-0.54241 -0.4907,-0.67976 -0.19515,-0.13735 -0.3548,-0.39618 -0.3548,-0.57517 0,-0.17898 -0.17201,-0.43285 -0.38225,-0.56414 -0.21023,-0.13129 -0.38224,-0.37611 -0.38224,-0.54404 0,-0.16794 -0.21582,-0.47511 -0.47961,-0.68261 -0.26379,-0.20749 -0.43847,-0.44388 -0.38814,-0.5253 0.0503,-0.0814 -0.11822,-0.34504 -0.37452,-0.58584 -0.25633,-0.24079 -0.42021,-0.51191 -0.36425,-0.60249 0.056,-0.0906 -0.0267,-0.21397 -0.18365,-0.27422 -0.15698,-0.0602 -0.36806,-0.34656 -0.46905,-0.63626 l -0.18362,-0.52673 3.84931,0.0193 c 2.11712,0.0106 3.95682,0.0876 4.08821,0.17109 0.13629,0.0866 0.23892,0.0649 0.23892,-0.0506 0,-0.27886 0.63553,-0.25488 0.92533,0.0349 0.18899,0.18899 0.2718,0.18147 0.40677,-0.0369 0.14028,-0.22699 0.25937,-0.23326 0.69141,-0.0364 0.39267,0.17891 0.55583,0.18298 0.65876,0.0165 0.0862,-0.1395 0.30461,-0.16706 0.59068,-0.0745 0.24963,0.0807 2.51796,0.15458 5.04074,0.16409 2.5228,0.009 4.69439,0.0867 4.82578,0.1716 0.13788,0.0891 0.2389,0.0687 0.2389,-0.0481 0,-0.22931 0.69477,-0.27872 0.8305,-0.0591 0.0487,0.0788 2.13936,0.13353 4.64592,0.12155 2.50656,-0.012 4.70093,0.0518 4.8764,0.14181 0.20895,0.10714 0.34703,0.0817 0.40016,-0.0738 0.0633,-0.18529 0.21347,-0.1886 0.68432,-0.0151 0.39298,0.14482 0.60325,0.15425 0.60325,0.0271 0,-0.11896 0.20534,-0.14143 0.52557,-0.0575 0.28908,0.0757 2.58966,0.14985 5.11246,0.16469 2.52278,0.0148 4.69437,0.0963 4.82576,0.18098 0.1405,0.0906 0.2389,0.066 0.2389,-0.0597 0,-0.11752 0.0907,-0.15763 0.2015,-0.0891 0.11084,0.0685 2.06743,0.12881 4.34798,0.13404 2.72928,0.006 4.23873,0.0819 4.41645,0.2212 0.20077,0.15743 0.2907,0.15015 0.35079,-0.0284 0.0444,-0.13205 0.16785,-0.18628 0.27426,-0.12052 0.10642,0.0658 1.47048,0.12112 3.03123,0.123 2.42877,0.003 2.85596,0.0478 2.96418,0.31164 0.11403,0.27791 0.13853,0.27602 0.24931,-0.0193 0.1845,-0.49169 0.64837,-0.10774 0.64837,0.53666 0,0.29664 -0.0967,0.5716 -0.215,0.61102 -0.11825,0.0394 -0.215,0.28221 -0.215,0.53954 0,0.25733 -0.12306,0.51509 -0.27348,0.57281 -0.16208,0.0622 -0.26657,0.34753 -0.25651,0.70065 0.009,0.32764 -0.0826,0.6289 -0.20434,0.66947 -0.12171,0.0406 -0.22127,0.23245 -0.22127,0.42642 0,0.19396 -0.13737,0.49002 -0.30525,0.6579 -0.16788,0.16789 -0.25755,0.42955 -0.19926,0.58148 0.0583,0.15193 -0.0193,0.40159 -0.17253,0.5548 -0.15322,0.15321 -0.27858,0.45057 -0.27858,0.6608 0,0.21023 -0.1075,0.49588 -0.23889,0.63479 -0.1314,0.1389 -0.26729,0.41657 -0.30195,0.61704 -0.0347,0.20048 -0.1855,0.55136 -0.33515,0.77974 -0.14962,0.22838 -0.2165,0.4708 -0.14859,0.5387 0.0679,0.0679 0.008,0.26294 -0.13377,0.43341 -0.14147,0.17046 -0.28445,0.48831 -0.31771,0.70631 -0.0333,0.21801 -0.14404,0.49705 -0.24614,0.62009 -0.10213,0.12303 -0.12909,0.28029 -0.0599,0.34946 0.0692,0.0692 0.0217,0.12575 -0.10563,0.12575 -0.12723,0 -0.21378,0.10751 -0.19229,0.2389 0.0214,0.1314 -0.0608,0.48101 -0.18275,0.77692 -0.12198,0.29591 -0.22178,0.61843 -0.22178,0.7167 0,0.0983 -0.0952,0.17868 -0.21156,0.17868 -0.11636,0 -0.16208,0.129 -0.10157,0.28668 0.0605,0.15767 0.0368,0.28668 -0.0528,0.28668 -0.16973,0 -0.37661,0.524 -0.52671,1.33426 -0.0483,0.26082 -0.1756,0.52844 -0.28284,0.59472 -0.10726,0.0663 -0.19796,0.1969 -0.20156,0.29026 -0.004,0.0934 -0.0823,0.36886 -0.17481,0.61222 -0.0925,0.24335 -0.16822,0.56586 -0.16822,0.71669 0,0.15083 -0.0911,0.27424 -0.2024,0.27424 -0.11132,0 -0.14923,0.086 -0.0843,0.19112 0.065,0.10512 0.0233,0.19112 -0.0927,0.19112 -0.11594,0 -0.19767,0.10751 -0.18166,0.2389 0.0448,0.36788 -0.22853,1.09894 -0.4109,1.09894 -0.0896,0 -0.11666,0.12031 -0.0602,0.26735 0.0564,0.14704 0.009,0.32499 -0.1047,0.39544 -0.11398,0.0704 -0.15777,0.20816 -0.0973,0.30601 0.0605,0.0978 0.0151,0.17792 -0.10081,0.17792 -0.11594,0 -0.19767,0.1075 -0.18166,0.2389 0.0468,0.38361 -0.23196,1.09894 -0.42818,1.09894 -0.0991,0 -0.12705,0.0858 -0.0622,0.19078 0.0649,0.10493 -0.0161,0.38208 -0.17984,0.61588 -0.16375,0.23381 -0.29773,0.54112 -0.29773,0.68291 0,0.14179 -0.13396,0.39176 -0.29768,0.55547 -0.16373,0.16372 -0.24974,0.42258 -0.19117,0.57524 0.0586,0.15266 -0.0225,0.46173 -0.18012,0.6868 -0.15764,0.22508 -0.28663,0.55494 -0.28663,0.73303 0,0.17808 -0.0958,0.35573 -0.21296,0.39477 -0.11713,0.039 -0.24072,0.32392 -0.27466,0.63306 -0.0339,0.30915 -0.15312,0.59254 -0.26485,0.6298 -0.11171,0.0372 -0.20315,0.26503 -0.20315,0.50617 0,0.24117 -0.11824,0.53663 -0.26278,0.65656 -0.14452,0.11997 -0.26279,0.44943 -0.26279,0.73216 0,0.28271 -0.0968,0.54628 -0.215,0.58571 -0.11827,0.0394 -0.21503,0.26897 -0.21503,0.51014 0,0.24114 -0.13186,0.5479 -0.29302,0.68167 -0.16119,0.13375 -0.25858,0.3378 -0.21646,0.45342 0.0743,0.20378 -0.0257,0.46093 -0.69958,1.80245 -0.17595,0.35015 -0.31988,0.79113 -0.31988,0.97996 0,0.18886 -0.12626,0.44815 -0.28057,0.57621 -0.15433,0.12806 -0.27313,0.28911 -0.26405,0.35785 0.0612,0.46276 -0.0704,0.79393 -0.31541,0.79393 -0.15769,0 -0.2867,0.086 -0.2867,0.19114 0,0.10509 0.0786,0.19111 0.17467,0.19111 0.20286,0 -0.55988,1.94061 -0.8419,2.14209 -0.10419,0.0744 -0.19862,0.24643 -0.20979,0.38225 -0.0111,0.13578 -0.0334,0.3974 -0.0494,0.58136 -0.0161,0.18394 -0.0936,0.32428 -0.17245,0.31182 -0.36859,-0.0582 -0.49946,0.045 -0.25403,0.20036 0.23146,0.14648 0.22439,0.24392 -0.0478,0.65927 -0.17565,0.26807 -0.31935,0.61327 -0.31935,0.76716 0,0.15385 -0.13925,0.41899 -0.30943,0.58917 -0.17021,0.17018 -0.2559,0.36298 -0.19045,0.42841 0.0654,0.0654 0,0.29911 -0.14332,0.51927 -0.14425,0.22019 -0.3234,0.67856 -0.39809,1.01865 -0.0747,0.3401 -0.21498,0.61833 -0.31174,0.61833 -0.0967,0 -0.17594,0.16587 -0.17594,0.36859 0,0.20273 -0.13735,0.50594 -0.30523,0.67384 -0.1679,0.16788 -0.25754,0.42955 -0.19925,0.58148 0.0583,0.15192 -0.0193,0.40158 -0.17257,0.55478 -0.15319,0.15322 -0.27855,0.45058 -0.27855,0.66082 0,0.21021 -0.1075,0.49588 -0.23889,0.63479 -0.13139,0.1389 -0.2676,0.42455 -0.30266,0.63479 -0.0351,0.21021 -0.14256,0.46394 -0.23889,0.5638 -0.0963,0.0999 -0.17516,0.34459 -0.17516,0.54387 0,0.34343 -0.0901,0.55828 -0.82677,1.9712 -0.17044,0.32687 -0.26759,0.63659 -0.21592,0.68826 0.0517,0.0517 -0.0361,0.34325 -0.19497,0.64797 -0.15891,0.30469 -0.28946,0.65434 -0.29012,0.77697 0,0.12264 -0.0821,0.25165 -0.18105,0.28668 -0.0989,0.035 -0.22416,0.31078 -0.27827,0.61275 -0.10197,0.56893 -0.30633,0.92517 -0.30633,0.53398 z"
       id="path43" />
    <path
       style="fill:#9e2098;fill-opacity:1;stroke:#7e2077;stroke-width:0.191421;stroke-dasharray:0.191421, 1.14852;stroke-dashoffset:0;stroke-opacity:1"
       d="m 345.91153,295.79088 c 0,-0.12264 -0.1198,-0.22299 -0.26622,-0.22299 -0.24361,0 -0.54634,-0.45371 -0.44524,-0.66723 0.0233,-0.0494 -0.15098,-0.22542 -0.38749,-0.39108 -0.23651,-0.16566 -0.43148,-0.40383 -0.4333,-0.52925 -0.003,-0.12544 -0.21233,-0.42627 -0.46781,-0.66852 -0.25572,-0.24249 -0.41686,-0.56462 -0.35849,-0.7167 0.0634,-0.16526 -0.009,-0.27625 -0.18066,-0.27625 -0.2277,0 -0.58988,-0.4888 -0.53104,-0.71671 0.007,-0.0262 -0.15968,-0.21979 -0.36992,-0.43 -0.21021,-0.21024 -0.38221,-0.50824 -0.38221,-0.6622 0,-0.15398 -0.17201,-0.372 -0.38225,-0.48453 -0.21023,-0.1125 -0.38224,-0.35285 -0.38224,-0.53411 0,-0.18124 -0.17201,-0.43696 -0.38224,-0.56825 -0.21024,-0.13128 -0.38225,-0.35367 -0.38225,-0.49416 0,-0.14049 -0.172,-0.41108 -0.38224,-0.60135 -0.21021,-0.19026 -0.38222,-0.46429 -0.38222,-0.60899 0,-0.14467 -0.12115,-0.30953 -0.26918,-0.36634 -0.14807,-0.0568 -0.37349,-0.35512 -0.50099,-0.66291 -0.12751,-0.30782 -0.29694,-0.55965 -0.37656,-0.55965 -0.0796,0 -0.24905,-0.25183 -0.37655,-0.55962 -0.12748,-0.30779 -0.35838,-0.6082 -0.51311,-0.66757 -0.1547,-0.0594 -0.23548,-0.18206 -0.17949,-0.27263 0.056,-0.0906 -0.10793,-0.36168 -0.36425,-0.60248 -0.25631,-0.2408 -0.42059,-0.51131 -0.36508,-0.60116 0.0555,-0.0898 0.01,-0.16333 -0.10144,-0.16333 -0.11131,0 -0.2024,-0.12901 -0.2024,-0.28667 0,-0.15767 -0.086,-0.28668 -0.19111,-0.28668 -0.10512,0 -0.19111,-0.0896 -0.19111,-0.19912 0,-0.10951 -0.17203,-0.38373 -0.38224,-0.60939 -0.21024,-0.22567 -0.38225,-0.52816 -0.38225,-0.6722 0,-0.14407 -0.086,-0.20879 -0.19113,-0.1438 -0.1051,0.065 -0.19111,-0.0159 -0.19111,-0.17984 0,-0.16388 -0.086,-0.29797 -0.19111,-0.29797 -0.10512,0 -0.19114,-0.12902 -0.19114,-0.28668 0,-0.15767 -0.086,-0.28668 -0.1911,-0.28668 -0.10512,0 -0.19114,-0.12901 -0.19114,-0.28667 0,-0.15769 -0.086,-0.28668 -0.19111,-0.28668 -0.10512,0 -0.19111,-0.12901 -0.19111,-0.28667 0,-0.1577 -0.0715,-0.28671 -0.15883,-0.28671 -0.0874,0 -0.28088,-0.23651 -0.43002,-0.52557 -0.14915,-0.28905 -0.4217,-0.6923 -0.60566,-0.89606 -0.18394,-0.20378 -0.33446,-0.47614 -0.33446,-0.60523 0,-0.12909 -0.0695,-0.26337 -0.15446,-0.29843 -0.27443,-0.11316 -1.36335,-1.82676 -1.23952,-1.95059 0.0659,-0.0659 0.0265,-0.11985 -0.0875,-0.11985 -0.11406,0 -0.39484,-0.30329 -0.62394,-0.674 -0.2291,-0.37068 -0.54327,-0.80071 -0.69815,-0.9556 -0.15489,-0.15488 -0.22075,-0.28162 -0.14635,-0.28162 0.0744,0 -0.0901,-0.22537 -0.3656,-0.50086 -0.27548,-0.27548 -0.45971,-0.5675 -0.40939,-0.64889 0.0503,-0.0814 -0.0425,-0.19944 -0.20621,-0.26225 -0.16375,-0.0628 -0.24419,-0.20085 -0.17876,-0.30671 0.0654,-0.10586 0.0279,-0.19248 -0.0834,-0.19248 -0.11131,0 -0.20241,-0.085 -0.20241,-0.18894 0,-0.16777 -0.25606,-0.53044 -0.86003,-1.21801 -0.10512,-0.11964 -0.31316,-0.45408 -0.46231,-0.74313 -0.14917,-0.28909 -0.33334,-0.5256 -0.40931,-0.5256 -0.076,0 -0.19206,-0.215 -0.25802,-0.47779 -0.066,-0.26279 -0.20875,-0.4778 -0.31734,-0.4778 -0.10858,0 -0.28736,-0.25801 -0.3973,-0.57336 -0.10993,-0.31535 -0.28194,-0.57336 -0.38224,-0.57336 -0.1003,0 -0.27231,-0.25801 -0.38224,-0.57335 -0.10991,-0.31535 -0.28192,-0.57336 -0.38222,-0.57336 -0.1003,0 -0.26993,-0.25112 -0.3769,-0.55804 -0.107,-0.30692 -0.31753,-0.60524 -0.46786,-0.66292 -0.15034,-0.0577 -0.27334,-0.25891 -0.27334,-0.44715 0,-0.18825 -0.17201,-0.44969 -0.38222,-0.58098 -0.21024,-0.13129 -0.38224,-0.3893 -0.38224,-0.57336 0,-0.18405 -0.17201,-0.44207 -0.38225,-0.57336 -0.21024,-0.13129 -0.38224,-0.40998 -0.38224,-0.61933 0,-0.20934 -0.12322,-0.38062 -0.27379,-0.38062 -0.1506,0 -0.33494,-0.19351 -0.40966,-0.43002 -0.0747,-0.23651 -0.29554,-0.5424 -0.49069,-0.67975 -0.19516,-0.13736 -0.35481,-0.39618 -0.35481,-0.57517 0,-0.17899 -0.172,-0.43285 -0.38224,-0.56414 -0.21024,-0.13129 -0.38225,-0.3893 -0.38225,-0.57336 0,-0.18405 -0.172,-0.44207 -0.38224,-0.57336 -0.21024,-0.13129 -0.38224,-0.41507 -0.38224,-0.63061 0,-0.21554 -0.073,-0.34676 -0.1623,-0.29158 -0.0893,0.0552 -0.28279,-0.13326 -0.43003,-0.41874 -0.14724,-0.28548 -0.42031,-0.68805 -0.60684,-0.89459 -0.18654,-0.20654 -0.29999,-0.47758 -0.25213,-0.60231 0.0479,-0.12472 -0.079,-0.2702 -0.28199,-0.32327 -0.23931,-0.0626 -0.36901,-0.26289 -0.36901,-0.5699 0,-0.31267 -0.12978,-0.50734 -0.38225,-0.57336 -0.21023,-0.055 -0.38224,-0.25933 -0.38224,-0.45412 0,-0.19478 -0.17201,-0.46158 -0.38224,-0.59287 -0.21024,-0.13129 -0.38225,-0.3893 -0.38225,-0.57336 0,-0.18405 -0.172,-0.44206 -0.38221,-0.57336 -0.21024,-0.13129 -0.38225,-0.41506 -0.38225,-0.63061 0,-0.21554 -0.0817,-0.34141 -0.18153,-0.27971 -0.22513,0.13913 -0.64362,-0.60134 -0.48495,-0.85806 0.0636,-0.10294 -0.0154,-0.18717 -0.17555,-0.18717 -0.16018,0 -0.38331,-0.17201 -0.49581,-0.38224 -0.11252,-0.21023 -0.14681,-0.38224 -0.0762,-0.38224 0.0706,0 -0.0932,-0.22153 -0.36396,-0.4923 -0.27075,-0.27076 -0.4453,-0.61478 -0.38786,-0.76448 0.0625,-0.16286 -0.0138,-0.27217 -0.18981,-0.27217 -0.16182,0 -0.35536,-0.19351 -0.43008,-0.43002 -0.0747,-0.23652 -0.29554,-0.54241 -0.4907,-0.67976 -0.19515,-0.13735 -0.3548,-0.39618 -0.3548,-0.57517 0,-0.17898 -0.17201,-0.43285 -0.38225,-0.56414 -0.21023,-0.13129 -0.38224,-0.37611 -0.38224,-0.54404 0,-0.16794 -0.21582,-0.47511 -0.47961,-0.68261 -0.26379,-0.20749 -0.43847,-0.44388 -0.38814,-0.5253 0.0503,-0.0814 -0.11822,-0.34504 -0.37452,-0.58584 -0.25633,-0.24079 -0.42021,-0.51191 -0.36425,-0.60249 0.056,-0.0906 -0.0267,-0.21397 -0.18365,-0.27422 -0.15698,-0.0602 -0.36806,-0.34656 -0.46905,-0.63626 l -0.18362,-0.52673 3.84931,0.0193 c 2.11712,0.0106 3.95682,0.0876 4.08821,0.17109 0.13629,0.0866 0.23892,0.0649 0.23892,-0.0506 0,-0.27886 0.63553,-0.25488 0.92533,0.0349 0.18899,0.18899 0.2718,0.18147 0.40677,-0.0369 0.14028,-0.22699 0.25937,-0.23326 0.69141,-0.0364 0.39267,0.17891 0.55583,0.18298 0.65876,0.0165 0.0862,-0.1395 0.30461,-0.16706 0.59068,-0.0745 0.24963,0.0807 2.51796,0.15458 5.04074,0.16409 2.5228,0.009 4.69439,0.0867 4.82578,0.1716 0.13788,0.0891 0.2389,0.0687 0.2389,-0.0481 0,-0.22931 0.69477,-0.27872 0.8305,-0.0591 0.0487,0.0788 2.13936,0.13353 4.64592,0.12155 2.50656,-0.012 4.70093,0.0518 4.8764,0.14181 0.20895,0.10714 0.34703,0.0817 0.40016,-0.0738 0.0633,-0.18529 0.21347,-0.1886 0.68432,-0.0151 0.39298,0.14482 0.60325,0.15425 0.60325,0.0271 0,-0.11896 0.20534,-0.14143 0.52557,-0.0575 0.28908,0.0757 2.58966,0.14985 5.11246,0.16469 2.52278,0.0148 4.69437,0.0963 4.82576,0.18098 0.1405,0.0906 0.2389,0.066 0.2389,-0.0597 0,-0.11752 0.0907,-0.15763 0.2015,-0.0891 0.11084,0.0685 2.06743,0.12881 4.34798,0.13404 2.72928,0.006 4.23873,0.0819 4.41645,0.2212 0.20077,0.15743 0.2907,0.15015 0.35079,-0.0284 0.0444,-0.13205 0.16785,-0.18628 0.27426,-0.12052 0.10642,0.0658 1.47048,0.12112 3.03123,0.123 2.42877,0.003 2.85596,0.0478 2.96418,0.31164 0.11403,0.27791 0.13853,0.27602 0.24931,-0.0193 0.1845,-0.49169 0.64837,-0.10774 0.64837,0.53666 0,0.29664 -0.0967,0.5716 -0.215,0.61102 -0.11825,0.0394 -0.215,0.28221 -0.215,0.53954 0,0.25733 -0.12306,0.51509 -0.27348,0.57281 -0.16208,0.0622 -0.26657,0.34753 -0.25651,0.70065 0.009,0.32764 -0.0826,0.6289 -0.20434,0.66947 -0.12171,0.0406 -0.22127,0.23245 -0.22127,0.42642 0,0.19396 -0.13737,0.49002 -0.30525,0.6579 -0.16788,0.16789 -0.25755,0.42955 -0.19926,0.58148 0.0583,0.15193 -0.0193,0.40159 -0.17253,0.5548 -0.15322,0.15321 -0.27858,0.45057 -0.27858,0.6608 0,0.21023 -0.1075,0.49588 -0.23889,0.63479 -0.1314,0.1389 -0.26729,0.41657 -0.30195,0.61704 -0.0347,0.20048 -0.1855,0.55136 -0.33515,0.77974 -0.14962,0.22838 -0.2165,0.4708 -0.14859,0.5387 0.0679,0.0679 0.008,0.26294 -0.13377,0.43341 -0.14147,0.17046 -0.28445,0.48831 -0.31771,0.70631 -0.0333,0.21801 -0.14404,0.49705 -0.24614,0.62009 -0.10213,0.12303 -0.12909,0.28029 -0.0599,0.34946 0.0692,0.0692 0.0217,0.12575 -0.10563,0.12575 -0.12723,0 -0.21378,0.10751 -0.19229,0.2389 0.0214,0.1314 -0.0608,0.48101 -0.18275,0.77692 -0.12198,0.29591 -0.22178,0.61843 -0.22178,0.7167 0,0.0983 -0.0952,0.17868 -0.21156,0.17868 -0.11636,0 -0.16208,0.129 -0.10157,0.28668 0.0605,0.15767 0.0368,0.28668 -0.0528,0.28668 -0.16973,0 -0.37661,0.524 -0.52671,1.33426 -0.0483,0.26082 -0.1756,0.52844 -0.28284,0.59472 -0.10726,0.0663 -0.19796,0.1969 -0.20156,0.29026 -0.004,0.0934 -0.0823,0.36886 -0.17481,0.61222 -0.0925,0.24335 -0.16822,0.56586 -0.16822,0.71669 0,0.15083 -0.0911,0.27424 -0.2024,0.27424 -0.11132,0 -0.14923,0.086 -0.0843,0.19112 0.065,0.10512 0.0233,0.19112 -0.0927,0.19112 -0.11594,0 -0.19767,0.10751 -0.18166,0.2389 0.0448,0.36788 -0.22853,1.09894 -0.4109,1.09894 -0.0896,0 -0.11666,0.12031 -0.0602,0.26735 0.0564,0.14704 0.009,0.32499 -0.1047,0.39544 -0.11398,0.0704 -0.15777,0.20816 -0.0973,0.30601 0.0605,0.0978 0.0151,0.17792 -0.10081,0.17792 -0.11594,0 -0.19767,0.1075 -0.18166,0.2389 0.0468,0.38361 -0.23196,1.09894 -0.42818,1.09894 -0.0991,0 -0.12705,0.0858 -0.0622,0.19078 0.0649,0.10493 -0.0161,0.38208 -0.17984,0.61588 -0.16375,0.23381 -0.29773,0.54112 -0.29773,0.68291 0,0.14179 -0.13396,0.39176 -0.29768,0.55547 -0.16373,0.16372 -0.24974,0.42258 -0.19117,0.57524 0.0586,0.15266 -0.0225,0.46173 -0.18012,0.6868 -0.15764,0.22508 -0.28663,0.55494 -0.28663,0.73303 0,0.17808 -0.0958,0.35573 -0.21296,0.39477 -0.11713,0.039 -0.24072,0.32392 -0.27466,0.63306 -0.0339,0.30915 -0.15312,0.59254 -0.26485,0.6298 -0.11171,0.0372 -0.20315,0.26503 -0.20315,0.50617 0,0.24117 -0.11824,0.53663 -0.26278,0.65656 -0.14452,0.11997 -0.26279,0.44943 -0.26279,0.73216 0,0.28271 -0.0968,0.54628 -0.215,0.58571 -0.11827,0.0394 -0.21503,0.26897 -0.21503,0.51014 0,0.24114 -0.13186,0.5479 -0.29302,0.68167 -0.16119,0.13375 -0.25858,0.3378 -0.21646,0.45342 0.0743,0.20378 -0.0257,0.46093 -0.69958,1.80245 -0.17595,0.35015 -0.31988,0.79113 -0.31988,0.97996 0,0.18886 -0.12626,0.44815 -0.28057,0.57621 -0.15433,0.12806 -0.27313,0.28911 -0.26405,0.35785 0.0612,0.46276 -0.0704,0.79393 -0.31541,0.79393 -0.15769,0 -0.2867,0.086 -0.2867,0.19114 0,0.10509 0.0786,0.19111 0.17467,0.19111 0.20286,0 -0.55988,1.94061 -0.8419,2.14209 -0.10419,0.0744 -0.19862,0.24643 -0.20979,0.38225 -0.0111,0.13578 -0.0334,0.3974 -0.0494,0.58136 -0.0161,0.18394 -0.0936,0.32428 -0.17245,0.31182 -0.36859,-0.0582 -0.49946,0.045 -0.25403,0.20036 0.23146,0.14648 0.22439,0.24392 -0.0478,0.65927 -0.17565,0.26807 -0.31935,0.61327 -0.31935,0.76716 0,0.15385 -0.13925,0.41899 -0.30943,0.58917 -0.17021,0.17018 -0.2559,0.36298 -0.19045,0.42841 0.0654,0.0654 0,0.29911 -0.14332,0.51927 -0.14425,0.22019 -0.3234,0.67856 -0.39809,1.01865 -0.0747,0.3401 -0.21498,0.61833 -0.31174,0.61833 -0.0967,0 -0.17594,0.16587 -0.17594,0.36859 0,0.20273 -0.13735,0.50594 -0.30523,0.67384 -0.1679,0.16788 -0.25754,0.42955 -0.19925,0.58148 0.0583,0.15192 -0.0193,0.40158 -0.17257,0.55478 -0.15319,0.15322 -0.27855,0.45058 -0.27855,0.66082 0,0.21021 -0.1075,0.49588 -0.23889,0.63479 -0.13139,0.1389 -0.2676,0.42455 -0.30266,0.63479 -0.0351,0.21021 -0.14256,0.46394 -0.23889,0.5638 -0.0963,0.0999 -0.17516,0.34459 -0.17516,0.54387 0,0.34343 -0.0901,0.55828 -0.82677,1.9712 -0.17044,0.32687 -0.26759,0.63659 -0.21592,0.68826 0.0517,0.0517 -0.0361,0.34325 -0.19497,0.64797 -0.15891,0.30469 -0.28946,0.65434 -0.29012,0.77697 0,0.12264 -0.0821,0.25165 -0.18105,0.28668 -0.0989,0.035 -0.22416,0.31078 -0.27827,0.61275 -0.10197,0.56893 -0.30633,0.92517 -0.30633,0.53398 z"
       id="path43-9" />
    <path
       style="fill:#ffffff;fill-opacity:1;stroke:#ffffff;stroke-width:0.264999;stroke-dasharray:1.06, 0.264999;stroke-dashoffset:0;stroke-opacity:1"
       d="m 311.14285,297.19111 c 11.84942,-19.68532 27.71235,-61.1583 27.71235,-61.1583 l 0.38225,0.38225 0.38224,-0.76448"
       id="path44" />
  </g>
  <g
     inkscape:groupmode="layer"
     id="layer2"
     inkscape:label="slova">
    <text
       xml:space="preserve"
       transform="matrix(0.5312407,0,0,0.59643366,-5.1132947,-54.082528)"
       id="text32"
       style="font-style:normal;font-variant:normal;font-weight:normal;font-stretch:normal;font-size:96px;font-family:'Bodoni MT';-inkscape-font-specification:'Bodoni MT';white-space:pre;shape-inside:url(#rect32);fill:#b11faa;fill-opacity:1;stroke:#7e2077;stroke-width:1.00137;stroke-dasharray:8.01099, 2.00275, 1.00137, 2.00275;stroke-dashoffset:0;stroke-opacity:1"><tspan
         x="59.25"
         y="401.78789"
         id="tspan1">ANTIKV  RIJAT 
</tspan><tspan
         x="59.25"
         y="521.78789"
         id="tspan2">KNJIGA
</tspan><tspan
         x="59.25"
         y="641.78789"
         id="tspan3">ASTER</tspan></text>
  </g>
  <g
     inkscape:label="osnova"
     inkscape:groupmode="layer"
     id="layer1">
    <path
       sodipodi:type="star"
       style="display:inline;fill:#92238d;fill-opacity:1;stroke:#7e2077;stroke-width:0.265;stroke-dasharray:0.265, 1.59;stroke-dashoffset:0;stroke-opacity:1"
       id="path1"
       inkscape:flatsided="false"
       sodipodi:sides="5"
       sodipodi:cx="89.193741"
       sodipodi:cy="117.30328"
       sodipodi:r1="33.671795"
       sodipodi:r2="16.835897"
       sodipodi:arg1="0.83082144"
       sodipodi:arg2="1.45914"
       inkscape:rounded="0"
       inkscape:randomized="0"
       d="m 111.8976,142.16942 -20.827928,-8.13508 -18.50915,12.54565 1.300731,-22.32241 -17.651266,-13.72643 21.631824,-5.66093 7.600067,-21.029054 12.068472,18.823764 22.34837,0.72976 -14.1731,17.29466 z"
       inkscape:transform-center-x="0.68674419"
       inkscape:transform-center-y="-1.2487665"
       transform="matrix(0.59233641,0,0,0.59672365,191.03146,97.593095)" />
  </g>
  <script
     id="mesh_polyfill"
     type="text/javascript">
!function(){const t=&quot;http://www.w3.org/2000/svg&quot;,e=&quot;http://www.w3.org/1999/xlink&quot;,s=&quot;http://www.w3.org/1999/xhtml&quot;,r=2;if(document.createElementNS(t,&quot;meshgradient&quot;).x)return;const n=(t,e,s,r)=&gt;{let n=new x(.5*(e.x+s.x),.5*(e.y+s.y)),o=new x(.5*(t.x+e.x),.5*(t.y+e.y)),i=new x(.5*(s.x+r.x),.5*(s.y+r.y)),a=new x(.5*(n.x+o.x),.5*(n.y+o.y)),h=new x(.5*(n.x+i.x),.5*(n.y+i.y)),l=new x(.5*(a.x+h.x),.5*(a.y+h.y));return[[t,o,a,l],[l,h,i,r]]},o=t=&gt;{let e=t[0].distSquared(t[1]),s=t[2].distSquared(t[3]),r=.25*t[0].distSquared(t[2]),n=.25*t[1].distSquared(t[3]),o=e&gt;s?e:s,i=r&gt;n?r:n;return 18*(o&gt;i?o:i)},i=(t,e)=&gt;Math.sqrt(t.distSquared(e)),a=(t,e)=&gt;t.scale(2/3).add(e.scale(1/3)),h=t=&gt;{let e,s,r,n,o,i,a,h=new g;return t.match(/(\w+\(\s*[^)]+\))+/g).forEach(t=&gt;{let l=t.match(/[\w.-]+/g),d=l.shift();switch(d){case&quot;translate&quot;:2===l.length?e=new g(1,0,0,1,l[0],l[1]):(console.error(&quot;mesh.js: translate does not have 2 arguments!&quot;),e=new g(1,0,0,1,0,0)),h=h.append(e);break;case&quot;scale&quot;:1===l.length?s=new g(l[0],0,0,l[0],0,0):2===l.length?s=new g(l[0],0,0,l[1],0,0):(console.error(&quot;mesh.js: scale does not have 1 or 2 arguments!&quot;),s=new g(1,0,0,1,0,0)),h=h.append(s);break;case&quot;rotate&quot;:if(3===l.length&amp;&amp;(e=new g(1,0,0,1,l[1],l[2]),h=h.append(e)),l[0]){r=l[0]*Math.PI/180;let t=Math.cos(r),e=Math.sin(r);Math.abs(t)&lt;1e-16&amp;&amp;(t=0),Math.abs(e)&lt;1e-16&amp;&amp;(e=0),a=new g(t,e,-e,t,0,0),h=h.append(a)}else console.error(&quot;math.js: No argument to rotate transform!&quot;);3===l.length&amp;&amp;(e=new g(1,0,0,1,-l[1],-l[2]),h=h.append(e));break;case&quot;skewX&quot;:l[0]?(r=l[0]*Math.PI/180,n=Math.tan(r),o=new g(1,0,n,1,0,0),h=h.append(o)):console.error(&quot;math.js: No argument to skewX transform!&quot;);break;case&quot;skewY&quot;:l[0]?(r=l[0]*Math.PI/180,n=Math.tan(r),i=new g(1,n,0,1,0,0),h=h.append(i)):console.error(&quot;math.js: No argument to skewY transform!&quot;);break;case&quot;matrix&quot;:6===l.length?h=h.append(new g(...l)):console.error(&quot;math.js: Incorrect number of arguments for matrix!&quot;);break;default:console.error(&quot;mesh.js: Unhandled transform type: &quot;+d)}}),h},l=t=&gt;{let e=[],s=t.split(/[ ,]+/);for(let t=0,r=s.length-1;t&lt;r;t+=2)e.push(new x(parseFloat(s[t]),parseFloat(s[t+1])));return e},d=(t,e)=&gt;{for(let s in e)t.setAttribute(s,e[s])},c=(t,e,s,r,n)=&gt;{let o,i,a=[0,0,0,0];for(let h=0;h&lt;3;++h)e[h]&lt;t[h]&amp;&amp;e[h]&lt;s[h]||t[h]&lt;e[h]&amp;&amp;s[h]&lt;e[h]?a[h]=0:(a[h]=.5*((e[h]-t[h])/r+(s[h]-e[h])/n),o=Math.abs(3*(e[h]-t[h])/r),i=Math.abs(3*(s[h]-e[h])/n),a[h]&gt;o?a[h]=o:a[h]&gt;i&amp;&amp;(a[h]=i));return a},u=[[1,0,0,0,0,0,0,0,0,0,0,0,0,0,0,0],[0,0,0,0,1,0,0,0,0,0,0,0,0,0,0,0],[-3,3,0,0,-2,-1,0,0,0,0,0,0,0,0,0,0],[2,-2,0,0,1,1,0,0,0,0,0,0,0,0,0,0],[0,0,0,0,0,0,0,0,1,0,0,0,0,0,0,0],[0,0,0,0,0,0,0,0,0,0,0,0,1,0,0,0],[0,0,0,0,0,0,0,0,-3,3,0,0,-2,-1,0,0],[0,0,0,0,0,0,0,0,2,-2,0,0,1,1,0,0],[-3,0,3,0,0,0,0,0,-2,0,-1,0,0,0,0,0],[0,0,0,0,-3,0,3,0,0,0,0,0,-2,0,-1,0],[9,-9,-9,9,6,3,-6,-3,6,-6,3,-3,4,2,2,1],[-6,6,6,-6,-3,-3,3,3,-4,4,-2,2,-2,-2,-1,-1],[2,0,-2,0,0,0,0,0,1,0,1,0,0,0,0,0],[0,0,0,0,2,0,-2,0,0,0,0,0,1,0,1,0],[-6,6,6,-6,-4,-2,4,2,-3,3,-3,3,-2,-1,-2,-1],[4,-4,-4,4,2,2,-2,-2,2,-2,2,-2,1,1,1,1]],f=t=&gt;{let e=[];for(let s=0;s&lt;16;++s){e[s]=0;for(let r=0;r&lt;16;++r)e[s]+=u[s][r]*t[r]}return e},p=(t,e,s)=&gt;{const r=e*e,n=s*s,o=e*e*e,i=s*s*s;return t[0]+t[1]*e+t[2]*r+t[3]*o+t[4]*s+t[5]*s*e+t[6]*s*r+t[7]*s*o+t[8]*n+t[9]*n*e+t[10]*n*r+t[11]*n*o+t[12]*i+t[13]*i*e+t[14]*i*r+t[15]*i*o},y=t=&gt;{let e=[],s=[],r=[];for(let s=0;s&lt;4;++s)e[s]=[],e[s][0]=n(t[0][s],t[1][s],t[2][s],t[3][s]),e[s][1]=[],e[s][1].push(...n(...e[s][0][0])),e[s][1].push(...n(...e[s][0][1])),e[s][2]=[],e[s][2].push(...n(...e[s][1][0])),e[s][2].push(...n(...e[s][1][1])),e[s][2].push(...n(...e[s][1][2])),e[s][2].push(...n(...e[s][1][3]));for(let t=0;t&lt;8;++t){s[t]=[];for(let r=0;r&lt;4;++r)s[t][r]=[],s[t][r][0]=n(e[0][2][t][r],e[1][2][t][r],e[2][2][t][r],e[3][2][t][r]),s[t][r][1]=[],s[t][r][1].push(...n(...s[t][r][0][0])),s[t][r][1].push(...n(...s[t][r][0][1])),s[t][r][2]=[],s[t][r][2].push(...n(...s[t][r][1][0])),s[t][r][2].push(...n(...s[t][r][1][1])),s[t][r][2].push(...n(...s[t][r][1][2])),s[t][r][2].push(...n(...s[t][r][1][3]))}for(let t=0;t&lt;8;++t){r[t]=[];for(let e=0;e&lt;8;++e)r[t][e]=[],r[t][e][0]=s[t][0][2][e],r[t][e][1]=s[t][1][2][e],r[t][e][2]=s[t][2][2][e],r[t][e][3]=s[t][3][2][e]}return r};class x{constructor(t,e){this.x=t||0,this.y=e||0}toString(){return`(x=${this.x}, y=${this.y})`}clone(){return new x(this.x,this.y)}add(t){return new x(this.x+t.x,this.y+t.y)}scale(t){return void 0===t.x?new x(this.x*t,this.y*t):new x(this.x*t.x,this.y*t.y)}distSquared(t){let e=this.x-t.x,s=this.y-t.y;return e*e+s*s}transform(t){let e=this.x*t.a+this.y*t.c+t.e,s=this.x*t.b+this.y*t.d+t.f;return new x(e,s)}}class g{constructor(t,e,s,r,n,o){void 0===t?(this.a=1,this.b=0,this.c=0,this.d=1,this.e=0,this.f=0):(this.a=t,this.b=e,this.c=s,this.d=r,this.e=n,this.f=o)}toString(){return`affine: ${this.a} ${this.c} ${this.e} \n       ${this.b} ${this.d} ${this.f}`}append(t){t instanceof g||console.error(&quot;mesh.js: argument to Affine.append is not affine!&quot;);let e=this.a*t.a+this.c*t.b,s=this.b*t.a+this.d*t.b,r=this.a*t.c+this.c*t.d,n=this.b*t.c+this.d*t.d,o=this.a*t.e+this.c*t.f+this.e,i=this.b*t.e+this.d*t.f+this.f;return new g(e,s,r,n,o,i)}}class w{constructor(t,e){this.nodes=t,this.colors=e}paintCurve(t,e){if(o(this.nodes)&gt;r){const s=n(...this.nodes);let r=[[],[]],o=[[],[]];for(let t=0;t&lt;4;++t)r[0][t]=this.colors[0][t],r[1][t]=(this.colors[0][t]+this.colors[1][t])/2,o[0][t]=r[1][t],o[1][t]=this.colors[1][t];let i=new w(s[0],r),a=new w(s[1],o);i.paintCurve(t,e),a.paintCurve(t,e)}else{let s=Math.round(this.nodes[0].x);if(s&gt;=0&amp;&amp;s&lt;e){let r=4*(~~this.nodes[0].y*e+s);t[r]=Math.round(this.colors[0][0]),t[r+1]=Math.round(this.colors[0][1]),t[r+2]=Math.round(this.colors[0][2]),t[r+3]=Math.round(this.colors[0][3])}}}}class m{constructor(t,e){this.nodes=t,this.colors=e}split(){let t=[[],[],[],[]],e=[[],[],[],[]],s=[[[],[]],[[],[]]],r=[[[],[]],[[],[]]];for(let s=0;s&lt;4;++s){const r=n(this.nodes[0][s],this.nodes[1][s],this.nodes[2][s],this.nodes[3][s]);t[0][s]=r[0][0],t[1][s]=r[0][1],t[2][s]=r[0][2],t[3][s]=r[0][3],e[0][s]=r[1][0],e[1][s]=r[1][1],e[2][s]=r[1][2],e[3][s]=r[1][3]}for(let t=0;t&lt;4;++t)s[0][0][t]=this.colors[0][0][t],s[0][1][t]=this.colors[0][1][t],s[1][0][t]=(this.colors[0][0][t]+this.colors[1][0][t])/2,s[1][1][t]=(this.colors[0][1][t]+this.colors[1][1][t])/2,r[0][0][t]=s[1][0][t],r[0][1][t]=s[1][1][t],r[1][0][t]=this.colors[1][0][t],r[1][1][t]=this.colors[1][1][t];return[new m(t,s),new m(e,r)]}paint(t,e){let s,n=!1;for(let t=0;t&lt;4;++t)if((s=o([this.nodes[0][t],this.nodes[1][t],this.nodes[2][t],this.nodes[3][t]]))&gt;r){n=!0;break}if(n){let s=this.split();s[0].paint(t,e),s[1].paint(t,e)}else{new w([...this.nodes[0]],[...this.colors[0]]).paintCurve(t,e)}}}class b{constructor(t){this.readMesh(t),this.type=t.getAttribute(&quot;type&quot;)||&quot;bilinear&quot;}readMesh(t){let e=[[]],s=[[]],r=Number(t.getAttribute(&quot;x&quot;)),n=Number(t.getAttribute(&quot;y&quot;));e[0][0]=new x(r,n);let o=t.children;for(let t=0,r=o.length;t&lt;r;++t){e[3*t+1]=[],e[3*t+2]=[],e[3*t+3]=[],s[t+1]=[];let r=o[t].children;for(let n=0,o=r.length;n&lt;o;++n){let o=r[n].children;for(let r=0,i=o.length;r&lt;i;++r){let i=r;0!==t&amp;&amp;++i;let h,d=o[r].getAttribute(&quot;path&quot;),c=&quot;l&quot;;null!=d&amp;&amp;(c=(h=d.match(/\s*([lLcC])\s*(.*)/))[1]);let u=l(h[2]);switch(c){case&quot;l&quot;:0===i?(e[3*t][3*n+3]=u[0].add(e[3*t][3*n]),e[3*t][3*n+1]=a(e[3*t][3*n],e[3*t][3*n+3]),e[3*t][3*n+2]=a(e[3*t][3*n+3],e[3*t][3*n])):1===i?(e[3*t+3][3*n+3]=u[0].add(e[3*t][3*n+3]),e[3*t+1][3*n+3]=a(e[3*t][3*n+3],e[3*t+3][3*n+3]),e[3*t+2][3*n+3]=a(e[3*t+3][3*n+3],e[3*t][3*n+3])):2===i?(0===n&amp;&amp;(e[3*t+3][3*n+0]=u[0].add(e[3*t+3][3*n+3])),e[3*t+3][3*n+1]=a(e[3*t+3][3*n],e[3*t+3][3*n+3]),e[3*t+3][3*n+2]=a(e[3*t+3][3*n+3],e[3*t+3][3*n])):(e[3*t+1][3*n]=a(e[3*t][3*n],e[3*t+3][3*n]),e[3*t+2][3*n]=a(e[3*t+3][3*n],e[3*t][3*n]));break;case&quot;L&quot;:0===i?(e[3*t][3*n+3]=u[0],e[3*t][3*n+1]=a(e[3*t][3*n],e[3*t][3*n+3]),e[3*t][3*n+2]=a(e[3*t][3*n+3],e[3*t][3*n])):1===i?(e[3*t+3][3*n+3]=u[0],e[3*t+1][3*n+3]=a(e[3*t][3*n+3],e[3*t+3][3*n+3]),e[3*t+2][3*n+3]=a(e[3*t+3][3*n+3],e[3*t][3*n+3])):2===i?(0===n&amp;&amp;(e[3*t+3][3*n+0]=u[0]),e[3*t+3][3*n+1]=a(e[3*t+3][3*n],e[3*t+3][3*n+3]),e[3*t+3][3*n+2]=a(e[3*t+3][3*n+3],e[3*t+3][3*n])):(e[3*t+1][3*n]=a(e[3*t][3*n],e[3*t+3][3*n]),e[3*t+2][3*n]=a(e[3*t+3][3*n],e[3*t][3*n]));break;case&quot;c&quot;:0===i?(e[3*t][3*n+1]=u[0].add(e[3*t][3*n]),e[3*t][3*n+2]=u[1].add(e[3*t][3*n]),e[3*t][3*n+3]=u[2].add(e[3*t][3*n])):1===i?(e[3*t+1][3*n+3]=u[0].add(e[3*t][3*n+3]),e[3*t+2][3*n+3]=u[1].add(e[3*t][3*n+3]),e[3*t+3][3*n+3]=u[2].add(e[3*t][3*n+3])):2===i?(e[3*t+3][3*n+2]=u[0].add(e[3*t+3][3*n+3]),e[3*t+3][3*n+1]=u[1].add(e[3*t+3][3*n+3]),0===n&amp;&amp;(e[3*t+3][3*n+0]=u[2].add(e[3*t+3][3*n+3]))):(e[3*t+2][3*n]=u[0].add(e[3*t+3][3*n]),e[3*t+1][3*n]=u[1].add(e[3*t+3][3*n]));break;case&quot;C&quot;:0===i?(e[3*t][3*n+1]=u[0],e[3*t][3*n+2]=u[1],e[3*t][3*n+3]=u[2]):1===i?(e[3*t+1][3*n+3]=u[0],e[3*t+2][3*n+3]=u[1],e[3*t+3][3*n+3]=u[2]):2===i?(e[3*t+3][3*n+2]=u[0],e[3*t+3][3*n+1]=u[1],0===n&amp;&amp;(e[3*t+3][3*n+0]=u[2])):(e[3*t+2][3*n]=u[0],e[3*t+1][3*n]=u[1]);break;default:console.error(&quot;mesh.js: &quot;+c+&quot; invalid path type.&quot;)}if(0===t&amp;&amp;0===n||r&gt;0){let e=window.getComputedStyle(o[r]).stopColor.match(/^rgb\s*\(\s*(\d+)\s*,\s*(\d+)\s*,\s*(\d+)\s*\)$/i),a=window.getComputedStyle(o[r]).stopOpacity,h=255;a&amp;&amp;(h=Math.floor(255*a)),e&amp;&amp;(0===i?(s[t][n]=[],s[t][n][0]=Math.floor(e[1]),s[t][n][1]=Math.floor(e[2]),s[t][n][2]=Math.floor(e[3]),s[t][n][3]=h):1===i?(s[t][n+1]=[],s[t][n+1][0]=Math.floor(e[1]),s[t][n+1][1]=Math.floor(e[2]),s[t][n+1][2]=Math.floor(e[3]),s[t][n+1][3]=h):2===i?(s[t+1][n+1]=[],s[t+1][n+1][0]=Math.floor(e[1]),s[t+1][n+1][1]=Math.floor(e[2]),s[t+1][n+1][2]=Math.floor(e[3]),s[t+1][n+1][3]=h):3===i&amp;&amp;(s[t+1][n]=[],s[t+1][n][0]=Math.floor(e[1]),s[t+1][n][1]=Math.floor(e[2]),s[t+1][n][2]=Math.floor(e[3]),s[t+1][n][3]=h))}}e[3*t+1][3*n+1]=new x,e[3*t+1][3*n+2]=new x,e[3*t+2][3*n+1]=new x,e[3*t+2][3*n+2]=new x,e[3*t+1][3*n+1].x=(-4*e[3*t][3*n].x+6*(e[3*t][3*n+1].x+e[3*t+1][3*n].x)+-2*(e[3*t][3*n+3].x+e[3*t+3][3*n].x)+3*(e[3*t+3][3*n+1].x+e[3*t+1][3*n+3].x)+-1*e[3*t+3][3*n+3].x)/9,e[3*t+1][3*n+2].x=(-4*e[3*t][3*n+3].x+6*(e[3*t][3*n+2].x+e[3*t+1][3*n+3].x)+-2*(e[3*t][3*n].x+e[3*t+3][3*n+3].x)+3*(e[3*t+3][3*n+2].x+e[3*t+1][3*n].x)+-1*e[3*t+3][3*n].x)/9,e[3*t+2][3*n+1].x=(-4*e[3*t+3][3*n].x+6*(e[3*t+3][3*n+1].x+e[3*t+2][3*n].x)+-2*(e[3*t+3][3*n+3].x+e[3*t][3*n].x)+3*(e[3*t][3*n+1].x+e[3*t+2][3*n+3].x)+-1*e[3*t][3*n+3].x)/9,e[3*t+2][3*n+2].x=(-4*e[3*t+3][3*n+3].x+6*(e[3*t+3][3*n+2].x+e[3*t+2][3*n+3].x)+-2*(e[3*t+3][3*n].x+e[3*t][3*n+3].x)+3*(e[3*t][3*n+2].x+e[3*t+2][3*n].x)+-1*e[3*t][3*n].x)/9,e[3*t+1][3*n+1].y=(-4*e[3*t][3*n].y+6*(e[3*t][3*n+1].y+e[3*t+1][3*n].y)+-2*(e[3*t][3*n+3].y+e[3*t+3][3*n].y)+3*(e[3*t+3][3*n+1].y+e[3*t+1][3*n+3].y)+-1*e[3*t+3][3*n+3].y)/9,e[3*t+1][3*n+2].y=(-4*e[3*t][3*n+3].y+6*(e[3*t][3*n+2].y+e[3*t+1][3*n+3].y)+-2*(e[3*t][3*n].y+e[3*t+3][3*n+3].y)+3*(e[3*t+3][3*n+2].y+e[3*t+1][3*n].y)+-1*e[3*t+3][3*n].y)/9,e[3*t+2][3*n+1].y=(-4*e[3*t+3][3*n].y+6*(e[3*t+3][3*n+1].y+e[3*t+2][3*n].y)+-2*(e[3*t+3][3*n+3].y+e[3*t][3*n].y)+3*(e[3*t][3*n+1].y+e[3*t+2][3*n+3].y)+-1*e[3*t][3*n+3].y)/9,e[3*t+2][3*n+2].y=(-4*e[3*t+3][3*n+3].y+6*(e[3*t+3][3*n+2].y+e[3*t+2][3*n+3].y)+-2*(e[3*t+3][3*n].y+e[3*t][3*n+3].y)+3*(e[3*t][3*n+2].y+e[3*t+2][3*n].y)+-1*e[3*t][3*n].y)/9}}this.nodes=e,this.colors=s}paintMesh(t,e){let s=(this.nodes.length-1)/3,r=(this.nodes[0].length-1)/3;if(&quot;bilinear&quot;===this.type||s&lt;2||r&lt;2){let n;for(let o=0;o&lt;s;++o)for(let s=0;s&lt;r;++s){let r=[];for(let t=3*o,e=3*o+4;t&lt;e;++t)r.push(this.nodes[t].slice(3*s,3*s+4));let i=[];i.push(this.colors[o].slice(s,s+2)),i.push(this.colors[o+1].slice(s,s+2)),(n=new m(r,i)).paint(t,e)}}else{let n,o,a,h,l,d,u;const x=s,g=r;s++,r++;let w=new Array(s);for(let t=0;t&lt;s;++t){w[t]=new Array(r);for(let e=0;e&lt;r;++e)w[t][e]=[],w[t][e][0]=this.nodes[3*t][3*e],w[t][e][1]=this.colors[t][e]}for(let t=0;t&lt;s;++t)for(let e=0;e&lt;r;++e)0!==t&amp;&amp;t!==x&amp;&amp;(n=i(w[t-1][e][0],w[t][e][0]),o=i(w[t+1][e][0],w[t][e][0]),w[t][e][2]=c(w[t-1][e][1],w[t][e][1],w[t+1][e][1],n,o)),0!==e&amp;&amp;e!==g&amp;&amp;(n=i(w[t][e-1][0],w[t][e][0]),o=i(w[t][e+1][0],w[t][e][0]),w[t][e][3]=c(w[t][e-1][1],w[t][e][1],w[t][e+1][1],n,o));for(let t=0;t&lt;r;++t){w[0][t][2]=[],w[x][t][2]=[];for(let e=0;e&lt;4;++e)n=i(w[1][t][0],w[0][t][0]),o=i(w[x][t][0],w[x-1][t][0]),w[0][t][2][e]=n&gt;0?2*(w[1][t][1][e]-w[0][t][1][e])/n-w[1][t][2][e]:0,w[x][t][2][e]=o&gt;0?2*(w[x][t][1][e]-w[x-1][t][1][e])/o-w[x-1][t][2][e]:0}for(let t=0;t&lt;s;++t){w[t][0][3]=[],w[t][g][3]=[];for(let e=0;e&lt;4;++e)n=i(w[t][1][0],w[t][0][0]),o=i(w[t][g][0],w[t][g-1][0]),w[t][0][3][e]=n&gt;0?2*(w[t][1][1][e]-w[t][0][1][e])/n-w[t][1][3][e]:0,w[t][g][3][e]=o&gt;0?2*(w[t][g][1][e]-w[t][g-1][1][e])/o-w[t][g-1][3][e]:0}for(let s=0;s&lt;x;++s)for(let r=0;r&lt;g;++r){let n=i(w[s][r][0],w[s+1][r][0]),o=i(w[s][r+1][0],w[s+1][r+1][0]),c=i(w[s][r][0],w[s][r+1][0]),x=i(w[s+1][r][0],w[s+1][r+1][0]),g=[[],[],[],[]];for(let t=0;t&lt;4;++t){(d=[])[0]=w[s][r][1][t],d[1]=w[s+1][r][1][t],d[2]=w[s][r+1][1][t],d[3]=w[s+1][r+1][1][t],d[4]=w[s][r][2][t]*n,d[5]=w[s+1][r][2][t]*n,d[6]=w[s][r+1][2][t]*o,d[7]=w[s+1][r+1][2][t]*o,d[8]=w[s][r][3][t]*c,d[9]=w[s+1][r][3][t]*x,d[10]=w[s][r+1][3][t]*c,d[11]=w[s+1][r+1][3][t]*x,d[12]=0,d[13]=0,d[14]=0,d[15]=0,u=f(d);for(let e=0;e&lt;9;++e){g[t][e]=[];for(let s=0;s&lt;9;++s)g[t][e][s]=p(u,e/8,s/8),g[t][e][s]&gt;255?g[t][e][s]=255:g[t][e][s]&lt;0&amp;&amp;(g[t][e][s]=0)}}h=[];for(let t=3*s,e=3*s+4;t&lt;e;++t)h.push(this.nodes[t].slice(3*r,3*r+4));l=y(h);for(let s=0;s&lt;8;++s)for(let r=0;r&lt;8;++r)(a=new m(l[s][r],[[[g[0][s][r],g[1][s][r],g[2][s][r],g[3][s][r]],[g[0][s][r+1],g[1][s][r+1],g[2][s][r+1],g[3][s][r+1]]],[[g[0][s+1][r],g[1][s+1][r],g[2][s+1][r],g[3][s+1][r]],[g[0][s+1][r+1],g[1][s+1][r+1],g[2][s+1][r+1],g[3][s+1][r+1]]]])).paint(t,e)}}}transform(t){if(t instanceof x)for(let e=0,s=this.nodes.length;e&lt;s;++e)for(let s=0,r=this.nodes[0].length;s&lt;r;++s)this.nodes[e][s]=this.nodes[e][s].add(t);else if(t instanceof g)for(let e=0,s=this.nodes.length;e&lt;s;++e)for(let s=0,r=this.nodes[0].length;s&lt;r;++s)this.nodes[e][s]=this.nodes[e][s].transform(t)}scale(t){for(let e=0,s=this.nodes.length;e&lt;s;++e)for(let s=0,r=this.nodes[0].length;s&lt;r;++s)this.nodes[e][s]=this.nodes[e][s].scale(t)}}document.querySelectorAll(&quot;rect,circle,ellipse,path,text&quot;).forEach((r,n)=&gt;{let o=r.getAttribute(&quot;id&quot;);o||(o=&quot;patchjs_shape&quot;+n,r.setAttribute(&quot;id&quot;,o));const i=r.style.fill.match(/^url\(\s*&quot;?\s*#([^\s&quot;]+)&quot;?\s*\)/),a=r.style.stroke.match(/^url\(\s*&quot;?\s*#([^\s&quot;]+)&quot;?\s*\)/);if(i&amp;&amp;i[1]){const a=document.getElementById(i[1]);if(a&amp;&amp;&quot;meshgradient&quot;===a.nodeName){const i=r.getBBox();let l=document.createElementNS(s,&quot;canvas&quot;);d(l,{width:i.width,height:i.height});const c=l.getContext(&quot;2d&quot;);let u=c.createImageData(i.width,i.height);const f=new b(a);&quot;objectBoundingBox&quot;===a.getAttribute(&quot;gradientUnits&quot;)&amp;&amp;f.scale(new x(i.width,i.height));const p=a.getAttribute(&quot;gradientTransform&quot;);null!=p&amp;&amp;f.transform(h(p)),&quot;userSpaceOnUse&quot;===a.getAttribute(&quot;gradientUnits&quot;)&amp;&amp;f.transform(new x(-i.x,-i.y)),f.paintMesh(u.data,l.width),c.putImageData(u,0,0);const y=document.createElementNS(t,&quot;image&quot;);d(y,{width:i.width,height:i.height,x:i.x,y:i.y});let g=l.toDataURL();y.setAttributeNS(e,&quot;xlink:href&quot;,g),r.parentNode.insertBefore(y,r),r.style.fill=&quot;none&quot;;const w=document.createElementNS(t,&quot;use&quot;);w.setAttributeNS(e,&quot;xlink:href&quot;,&quot;#&quot;+o);const m=&quot;patchjs_clip&quot;+n,M=document.createElementNS(t,&quot;clipPath&quot;);M.setAttribute(&quot;id&quot;,m),M.appendChild(w),r.parentElement.insertBefore(M,r),y.setAttribute(&quot;clip-path&quot;,&quot;url(#&quot;+m+&quot;)&quot;),u=null,l=null,g=null}}if(a&amp;&amp;a[1]){const o=document.getElementById(a[1]);if(o&amp;&amp;&quot;meshgradient&quot;===o.nodeName){const i=parseFloat(r.style.strokeWidth.slice(0,-2))*(parseFloat(r.style.strokeMiterlimit)||parseFloat(r.getAttribute(&quot;stroke-miterlimit&quot;))||1),a=r.getBBox(),l=Math.trunc(a.width+i),c=Math.trunc(a.height+i),u=Math.trunc(a.x-i/2),f=Math.trunc(a.y-i/2);let p=document.createElementNS(s,&quot;canvas&quot;);d(p,{width:l,height:c});const y=p.getContext(&quot;2d&quot;);let g=y.createImageData(l,c);const w=new b(o);&quot;objectBoundingBox&quot;===o.getAttribute(&quot;gradientUnits&quot;)&amp;&amp;w.scale(new x(l,c));const m=o.getAttribute(&quot;gradientTransform&quot;);null!=m&amp;&amp;w.transform(h(m)),&quot;userSpaceOnUse&quot;===o.getAttribute(&quot;gradientUnits&quot;)&amp;&amp;w.transform(new x(-u,-f)),w.paintMesh(g.data,p.width),y.putImageData(g,0,0);const M=document.createElementNS(t,&quot;image&quot;);d(M,{width:l,height:c,x:0,y:0});let S=p.toDataURL();M.setAttributeNS(e,&quot;xlink:href&quot;,S);const k=&quot;pattern_clip&quot;+n,A=document.createElementNS(t,&quot;pattern&quot;);d(A,{id:k,patternUnits:&quot;userSpaceOnUse&quot;,width:l,height:c,x:u,y:f}),A.appendChild(M),o.parentNode.appendChild(A),r.style.stroke=&quot;url(#&quot;+k+&quot;)&quot;,g=null,p=null,S=null}}})}();
</script>
</svg>
